<svg width="532" height="102" viewBox="0 0 532 102" fill="none" xmlns="http://www.w3.org/2000/svg">
<path fill-rule="evenodd" clip-rule="evenodd" d="M-6.00071e-05 1L240.465 1L271.017 31.5075V102L-6.00071e-05 102V1Z" fill="#2B2A29"/>
<path fill-rule="evenodd" clip-rule="evenodd" d="M2.17275 3.17236L239.562 3.17236L268.839 32.4594V100.005L2.17275 100.005V3.17236Z" fill="#FEFEFE"/>
<path fill-rule="evenodd" clip-rule="evenodd" d="M4.35381 5.34473L238.663 5.34473L266.666 33.3679V97.8327L4.35381 97.8327V5.34473Z" fill="#E31E24"/>
<path fill-rule="evenodd" clip-rule="evenodd" d="M531.934 1V102L272.7 102V1L531.934 1Z" fill="#2B2A29"/>
<path fill-rule="evenodd" clip-rule="evenodd" d="M529.762 3.17236V100.005L275.489 100.005V3.17236L529.762 3.17236Z" fill="#FEFEFE"/>
<path d="M277.658 5.34497L527.587 5.34497L527.587 97.8292L277.658 97.8292L277.658 5.34497Z" fill="#2B2A29" stroke="#FEFEFE" stroke-width="0.0345864" stroke-miterlimit="22.9256"/>
<path fill-rule="evenodd" clip-rule="evenodd" d="M493.113 34.4413C504.358 34.4413 513.056 39.2877 519.007 48.8342L519.049 48.9073L519.091 48.9804C521.398 53.4298 522.672 58.1822 522.672 63.2061V64.2088C522.672 73.2539 519.049 80.7323 512.21 86.6127L512.179 86.644L512.147 86.6649C506.551 91.1039 500.046 93.1302 492.925 93.1302C482.693 93.1302 474.35 89.109 468.201 80.8994L468.169 80.8681L468.148 80.8263C464.64 75.6771 463.011 69.9012 463.011 63.6761C463.011 53.3045 467.386 45.1054 475.875 39.1728L475.917 39.1415L475.958 39.1101C481.179 35.8723 486.984 34.4309 493.113 34.4309V34.4413ZM443.225 34.4413H456.298C457.582 34.4413 458.574 35.4336 458.574 36.7183V36.7601L458.355 46.5363H443.225V73.5359C443.225 76.074 443.716 78.8836 446.264 80.0325L446.306 80.0534C447.183 80.4712 448.091 80.6592 449.062 80.6592H450.388C452.434 80.6592 454.502 80.0012 456.339 79.1447L459.263 77.7765V89.5477L458.647 90.1535C456.11 92.6393 452.017 93.1406 448.623 93.1406C440.814 93.1406 434.225 90.3519 430.926 82.9779C429.642 80.1161 429.255 76.7738 429.255 73.6613V26.942L429.6 26.4302C430.017 25.7931 430.654 25.5529 431.333 25.3231C431.97 25.1038 432.628 24.9158 433.275 24.7173C435.666 24.028 438.078 23.3908 440.49 22.7537L441.764 22.4195L443.225 24.2055V34.4518V34.4413ZM406.076 87.4796C401.649 91.2397 396.282 93.1302 390.07 93.1302H389.485C379.274 93.1302 371.056 89.203 366.64 79.7401L366.608 79.667L366.577 79.5938C365.126 75.7502 364.52 71.6663 364.52 67.572V36.4676L364.583 36.2274C364.844 35.1934 365.711 34.4518 366.796 34.4518H376.444L376.695 34.5145C377.728 34.7756 378.438 35.6529 378.438 36.7287V66.6737C378.438 71.9901 379.848 77.0036 385.131 79.2283C386.833 79.949 388.671 80.2519 390.519 80.2519H391.427C398.088 80.2519 402.348 77.1916 404.666 70.977C405.408 68.5956 405.554 65.7546 405.554 63.2688V36.7287C405.554 35.444 406.546 34.4518 407.83 34.4518L417.509 34.4518L417.791 34.5353C418.772 34.8278 419.461 35.6843 419.461 36.7287V90.2892C419.461 91.5635 418.459 92.5766 417.185 92.5662L406.034 92.4304L406.055 90.3728C406.065 89.4119 406.076 88.451 406.086 87.4901L406.076 87.4796ZM362.495 89.1717C362.714 89.4641 362.891 89.7983 363.038 90.1535L363.883 92.0962L361.284 93.1406H348.493L347.888 92.1588C347.501 91.5322 347.167 90.8219 346.833 90.1639C346.207 88.9001 345.591 87.6258 344.985 86.3411C343.053 82.2781 341.153 78.1943 339.263 74.1208L305.34 74.1208C305.298 74.2148 305.256 74.2984 305.215 74.3819C304.766 75.2906 304.338 76.1993 303.91 77.108C302.364 80.3981 300.85 83.6986 299.347 86.9992L299.326 87.0514C298.71 88.2943 298.104 89.5372 297.467 90.7697C297.018 91.6366 296.58 92.702 295.567 93.0362L295.254 93.1406H283.288L280.595 92.0544L319.54 12.6014L325.502 12.6014L326.097 13.6041C326.452 14.1995 326.776 14.8888 327.089 15.5051C327.757 16.8316 328.404 18.158 329.062 19.495C331.432 24.3309 333.771 29.1876 336.1 34.034C344.943 52.3958 353.724 70.7785 362.495 89.1717V89.1717ZM483.392 77.4527C486.055 79.3432 488.958 80.3772 492.226 80.3772H493.552C498.939 80.3772 502.959 77.9436 506.07 73.609C507.971 70.601 508.702 67.2064 508.702 63.6761C508.702 57.169 506.29 52.1451 500.62 48.9177C498.448 47.7584 496.12 47.1421 493.656 47.1421H492.111C486.347 47.1421 482.213 49.9726 479.132 54.725C477.89 57.2317 477.055 59.9473 477.055 62.7674V64.6997C477.055 69.9952 479.299 74.1417 483.392 77.4527V77.4527ZM322.286 37.9612L311.479 61.044H333.103L322.286 37.9612Z" fill="#2B2A29"/>
<path d="M474.999 62.7657V64.6979C474.999 70.4425 477.379 75.2471 482.151 79.0908C485.283 81.3259 488.624 82.4331 492.227 82.4331H493.553C499.368 82.4331 504.119 79.8846 507.773 74.7562C509.778 71.6123 510.759 67.9149 510.759 63.6744C510.759 56.1019 507.7 50.5767 501.592 47.0986C499.086 45.7512 496.424 45.0828 493.667 45.0828H492.122C485.972 45.0828 481.044 47.9551 477.358 53.7101C475.792 56.8435 475.009 59.862 475.009 62.7657H474.999ZM493.114 36.4972C503.639 36.4972 511.678 40.978 517.264 49.9291C519.499 54.2428 520.605 58.6609 520.605 63.2148V64.2175C520.605 72.5315 517.348 79.4772 510.853 85.0651C505.779 89.0864 499.796 91.0917 492.905 91.0917C483.216 91.0917 475.521 87.2899 469.83 79.6861C466.625 74.9964 465.048 69.6592 465.048 63.6952C465.048 54.0757 469.037 46.4615 477.035 40.884C481.723 37.9699 487.069 36.5181 493.114 36.5181V36.4972ZM441.013 24.726L441.18 24.9245V36.4972H456.309C456.455 36.4972 456.528 36.5703 456.528 36.7165L456.351 44.4874H441.18V73.5446C441.18 77.8374 442.6 80.6366 445.44 81.9108C446.547 82.4435 447.747 82.7151 449.073 82.7151H450.399C452.488 82.7151 454.764 82.1511 457.217 81.0021V88.679C455.578 90.2771 452.728 91.0813 448.635 91.0813C440.72 91.0813 435.448 88.0941 432.817 82.1302C431.814 79.9681 431.323 77.1272 431.323 73.6491V27.5461C431.47 27.3267 434.706 26.3867 441.013 24.726V24.726ZM366.797 36.4972H376.184C376.33 36.539 376.382 36.6016 376.382 36.7165V66.6615C376.382 74.046 379.034 78.8714 384.328 81.1066C386.197 81.8899 388.275 82.2868 390.509 82.2868H391.418C398.914 82.2868 403.968 78.7252 406.599 71.6228C407.267 69.4712 407.601 66.6929 407.601 63.2566V36.7165C407.601 36.5703 407.674 36.4972 407.821 36.4972L417.207 36.4972C417.332 36.539 417.405 36.6016 417.405 36.7165V90.2771C417.405 90.4233 417.332 90.4964 417.207 90.4964L408.102 90.3919C408.165 85.0651 408.144 82.642 408.144 82.3913C403.529 88.1986 397.505 91.0917 390.071 91.0917H389.486C379.306 91.0917 372.3 87.0183 368.499 78.8819C367.225 75.5187 366.568 71.7481 366.568 67.5807V36.727C366.609 36.5808 366.683 36.5076 366.787 36.5076L366.797 36.4972ZM322.151 33.4056L308.254 63.0999H336.33L322.423 33.4056H322.151V33.4056ZM324.333 14.6469C325.409 16.4433 337.552 41.6778 360.773 90.3293C360.846 90.3293 360.971 90.5486 361.159 90.9664L360.888 91.0813H349.643C348.933 89.9219 345.915 83.5715 340.59 72.051L304.14 72.051C303.994 72.051 301.781 76.7407 297.479 86.1305C295.881 89.3893 295.025 91.0395 294.921 91.0813H283.686L283.415 90.9664L320.825 14.6469L324.333 14.6469V14.6469Z" fill="#FEFEFE"/>
<path fill-rule="evenodd" clip-rule="evenodd" d="M246.14 1L270.802 1V25.6704H268.912L246.14 2.89049V1Z" fill="#FFED00" stroke="#2B2A29" stroke-width="0.200377" stroke-miterlimit="22.9256"/>
<path fill-rule="evenodd" clip-rule="evenodd" d="M55.2971 68.1553C55.412 67.9778 55.5164 67.8002 55.6313 67.6331C56.2368 66.7244 56.832 65.8053 57.4271 64.8966C59.7033 61.4081 61.9586 57.9195 64.2139 54.4205C72.8591 41.0409 81.4939 27.6507 90.1183 14.2606L90.7552 13.2788L91.9246 13.2684C93.0626 13.2579 94.1903 13.2266 95.3284 13.1952L97.5419 13.1326L97.5628 15.3469C97.615 22.2195 97.6672 29.1025 97.6672 35.9752L97.6672 93.2122H85.7226L85.7748 90.9875C85.8165 89.1283 85.8478 87.2796 85.8478 85.4205V65.0219C85.8478 56.7811 85.9836 48.5506 85.994 40.3097C85.6077 40.9155 85.2109 41.5109 84.8246 42.1167C83.2167 44.6234 81.6087 47.1197 79.9904 49.616C73.9241 59.0162 67.8369 68.4165 61.7706 77.8063C60.9667 79.0492 60.1731 80.2921 59.3483 81.5141C59.0977 81.8902 58.8575 82.2766 58.5861 82.6526L57.9387 83.5509H52.3005L51.6532 82.5586C45.827 73.5762 40.0113 64.5833 34.227 55.5695C30.9798 50.5038 27.7221 45.4381 24.5272 40.3306L24.5272 93.2018H12.6034L12.6034 13.1221L14.8273 13.1744C16.049 13.2057 17.281 13.237 18.5026 13.2475L19.6616 13.2579L20.2985 14.2293C28.8916 27.4314 37.4741 40.6335 46.0359 53.8461C48.3329 57.3868 50.6195 60.9172 52.9061 64.4684C53.6996 65.6904 54.5036 66.902 55.2763 68.1449L55.2971 68.1553ZM120.721 68.3538C121.17 71.3619 122.434 74.088 124.219 76.5529C128.395 81.2112 133.626 83.4151 139.86 83.4151C145.31 83.4151 150.812 82.6004 155.845 80.4279L158.883 79.1223V88.8359L157.871 89.473C155.939 90.695 153.371 91.5515 151.188 92.22L151.115 92.2409L151.042 92.2618C147.45 93.0765 143.545 93.2018 139.87 93.2018C129.44 93.2018 120.638 89.5879 114.394 81.0024L114.363 80.9606L114.331 80.9084C111.074 75.8949 109.549 70.3279 109.549 64.3535C109.549 53.4805 114.195 45.1247 123.384 39.3279L123.457 39.2757L123.54 39.2339C128.009 36.9152 132.791 35.7245 137.813 35.7245C147.795 35.7245 155.605 39.8502 161.191 48.1328L161.233 48.1851L161.264 48.2477C164.229 53.303 165.597 58.8282 165.597 64.6773V64.719C165.587 65.2413 165.587 65.7635 165.555 66.2857L165.43 68.3225L120.721 68.3225V68.3538ZM181.353 11.9941C182.345 11.5972 183.368 11.3883 184.443 11.3883C187.92 11.3883 190.217 13.2057 191.502 16.36L191.554 16.4749L191.585 16.6002C191.742 17.1538 191.836 17.7283 191.836 18.3027V18.4698C191.836 21.9897 189.904 24.2875 186.73 25.5722L186.458 25.6871L184.349 25.9274H184.214C180.758 25.8856 178.45 24.0682 177.155 20.9243L177.072 20.7154L177.03 20.4857C176.926 19.8903 176.832 19.2845 176.832 18.6787C176.832 15.5871 178.513 13.4668 181.175 12.0881L181.269 12.0359L181.363 11.9941H181.353ZM178.586 35.6932H190.029V93.2122H178.586V35.6932V35.6932ZM215.683 44.0803C220.58 38.3775 226.96 35.7454 234.519 35.7454H236.555C243.049 35.7454 248.802 37.7717 253.396 42.4613L253.428 42.4927C257.98 47.3286 259.39 53.9296 259.39 60.3949V93.2122H248.228V61.4498C248.228 55.3292 246.474 49.5951 240.439 47.0361C238.257 46.1901 235.97 45.7932 233.631 45.7932C226.27 45.7932 220.768 48.7282 217.803 55.6217C216.967 58.0658 216.56 60.6247 216.56 63.2046V93.1913H205.346V36.1632L212.948 36.1632L213.491 37.5419C213.699 38.0746 213.887 38.6072 214.075 39.1399C214.639 40.7693 215.172 42.4091 215.694 44.0594L215.683 44.0803ZM120.721 60.0607L154.874 60.0607C154.728 57.1153 153.005 53.9923 151.397 51.6214C147.993 47.6419 143.775 45.3128 138.471 45.3128H137.093C130.578 45.3128 125.869 48.4566 122.601 53.9923C121.567 55.7993 121.014 57.9822 120.711 60.0607H120.721Z" fill="#FEFEFE"/>
</svg>
