<svg width="90" height="72" viewBox="0 0 90 72" fill="none" xmlns="http://www.w3.org/2000/svg">
<path fill-rule="evenodd" clip-rule="evenodd" d="M84.1619 22.7524L80.4943 28.2662C83.0839 33.8171 84.3601 39.9503 84.1867 46.0712C84.0008 52.5638 82.2042 58.9201 78.9579 64.5577L78.4375 65.4622H11.3806L10.8602 64.5577C6.64744 57.2474 4.888 48.7475 5.87923 40.3592C6.85808 31.9709 10.5256 24.1154 16.312 17.9697C22.1107 11.8241 29.7308 7.69808 38.0448 6.22363C45.9994 4.81112 54.239 5.90147 61.5494 9.30884L66.9888 5.69084C59.0589 1.27985 49.8404 -0.665445 40.7954 0.201884C30.7592 1.15595 21.3301 5.45542 14.0197 12.3941C6.70939 19.3451 1.93908 28.5388 0.477013 38.513C-0.985056 48.4749 0.935458 58.6846 5.94119 67.4323C6.59788 68.5722 7.55194 69.5263 8.69186 70.183C9.83178 70.8396 11.1204 71.2114 12.4462 71.2114H77.3719C78.7101 71.2114 80.0235 70.8768 81.1758 70.2077C82.3281 69.5387 83.2945 68.5846 83.9636 67.4323C88.102 60.2706 90.196 51.9938 89.9854 43.7294C89.7995 36.3571 87.7923 29.1459 84.1867 22.7401L84.1619 22.7524Z" fill="#2B2A29"/>
<path fill-rule="evenodd" clip-rule="evenodd" d="M50.1639 50.3584L71.587 18.2177L39.4462 39.6407C38.8019 40.3221 38.2815 41.1151 37.9222 41.9825C37.5381 42.8994 37.3398 43.8906 37.3398 44.8818C37.3398 45.8731 37.5381 46.8643 37.9222 47.7812C38.3063 48.6981 38.8639 49.5406 39.5701 50.2345C40.2764 50.9407 41.1065 51.4983 42.0234 51.8824C42.9403 52.2665 43.9315 52.4648 44.9228 52.4648C45.914 52.4648 46.9052 52.2665 47.8221 51.8824C48.6895 51.5231 49.4825 51.0027 50.1639 50.3584Z" fill="#E31E24"/>
</svg>
