<svg width="90" height="90" viewBox="0 0 90 90" fill="none" xmlns="http://www.w3.org/2000/svg">
<path fill-rule="evenodd" clip-rule="evenodd" d="M10.3795 37.2093C10.3795 39.768 13.8072 39.768 13.8072 37.2093C13.8072 35.1455 10.3795 35.1455 10.3795 37.2093ZM46.6595 34.1075C47.5647 33.2989 48.5906 32.0558 49.3751 31.3075C49.8337 30.8851 50.2924 30.6075 50.8113 30.2695C52.9959 28.8092 55.6632 27.8919 58.3063 27.8919H87.0672C88.5397 27.8919 89.8793 29.0023 89.8793 30.523V42.1577C89.8793 43.075 88.9983 43.956 88.2138 44.3302C86.9345 44.9336 85.6431 44.4871 84.7861 43.4129C83.7482 42.1094 83.9896 36.5335 84.062 33.6731H80.6223V61.7822H84.0741V55.6873C84.0741 50.4613 89.8552 51.3182 89.8552 54.6614V64.9323C89.8552 67.2254 87.8397 67.5754 86.0172 67.5754H73.9721C73.5135 68.6979 72.6928 69.7962 71.7635 70.46C70.1462 71.6186 69.7359 71.5824 68.3962 71.8359C67.9858 74.9739 65.4996 77.4843 62.3857 77.9429C61.9271 81.0205 59.4529 83.4947 56.3753 83.9413C55.8322 87.1396 53.0924 90 49.7251 90C48.6992 90 47.5285 89.9276 46.563 89.5535C46.1406 89.3845 45.9233 89.2155 45.6095 89.0224C45.2957 89.2034 45.0905 89.3845 44.656 89.5535C43.6905 89.9276 42.5198 90 41.4939 90C38.1145 90 35.3869 87.1517 34.8438 83.9413C31.7541 83.4947 29.2799 81.0326 28.8333 77.9429C25.7316 77.4843 23.2453 74.9739 22.8229 71.8479C22.3401 71.7755 21.8815 71.7031 21.3383 71.4859C19.4918 70.7496 17.9469 69.41 17.2348 67.5634H4.17595C2.30523 67.5634 0 67.4185 0 64.9323V30.5351C0 29.0023 1.32761 27.904 2.81213 27.904H36.8714C39.418 27.904 41.5784 28.9781 43.3405 30.7523C44.2336 31.6454 45.5371 33.1782 46.6233 34.1196L46.6595 34.1075ZM74.8411 33.6851H58.4753C55.3011 33.6851 53.539 35.23 51.4269 37.3421C50.4613 38.3076 49.4837 39.2852 48.5182 40.2508C48.0475 40.7215 47.5527 41.156 47.1182 41.6508C46.4061 42.4594 43.6664 44.9216 43.6664 45.9354C43.6664 46.5026 44.1733 47.4078 44.8009 47.4078H45.7302C46.4182 47.1906 48.0716 46.1526 48.6872 45.7905C49.7734 45.1388 50.8475 44.4388 51.9338 43.787C53.539 42.8215 57.4615 40.0456 59.1874 40.0456H69.9652C71.7393 40.0456 73.2842 41.1439 73.2842 43.0267C73.2842 45.3681 71.3169 45.8388 69.4462 45.8388L60.5391 45.8267C59.6098 45.8267 59.2839 46.0561 58.8977 46.3336C59.3322 46.7681 59.8874 47.2388 60.0805 47.4319L72.4876 59.8391C73.2238 60.5753 73.5014 60.9857 73.8635 61.7943C74.1411 61.8184 74.5032 61.8184 74.8532 61.8064V33.6731L74.8411 33.6851ZM42.6284 38.1507L38.6818 34.2162C38.2594 33.9506 37.5473 33.6851 37.0766 33.6851H5.82943V61.7943H9.28122V43.3767C9.28122 40.5284 15.0624 39.2973 15.0624 44.5715V61.8184C15.8831 61.8426 16.909 61.8667 17.4038 61.8184C17.5124 61.5891 17.609 61.3357 17.7417 61.0943L17.8142 60.9736L23.0884 55.5545L23.1246 55.5304C24.6212 54.2148 26.2867 54.1062 28.1816 54.1062C30.4385 54.1062 32.9851 56.0373 33.9145 58.0408C34.3248 58.9339 34.4938 59.4529 34.5541 60.165C37.668 60.6236 40.1542 63.0495 40.6611 66.1513C43.7146 66.622 46.2612 69.2048 46.6837 72.2583C47.5647 72.4393 48.2044 72.56 49.2062 73.1031C50.7027 73.9238 54.2028 78.0998 55.0718 78.2205C56.8942 78.2205 57.208 76.7239 55.9649 75.517L46.2975 65.8495C45.5009 65.053 44.7405 64.534 44.7405 63.2305C44.7405 61.5891 45.8268 60.0805 47.5526 60.0805C48.8078 60.0805 49.4596 60.9374 50.2562 61.7339L58.3908 69.8686C58.9218 70.3996 60.4546 72.2462 61.2512 72.2462C61.7219 72.2462 62.7236 71.8359 62.7236 71.2928C62.7236 70.8583 62.6995 70.3393 62.4823 69.941C62.1443 69.3134 60.8046 68.203 60.2615 67.6599L53.9252 61.3236C52.8872 60.2856 50.7389 58.6201 50.7389 57.0873C50.7389 55.3735 52.0062 54.1062 53.72 54.1062C55.1201 54.1062 55.9649 55.3011 56.8459 56.1821C58.4753 57.8115 60.0926 59.4649 61.7098 61.0943C62.784 62.1805 63.8702 63.2667 64.9685 64.3409C65.4513 64.8237 66.1996 65.6082 66.7185 65.9944C67.2254 66.3082 67.8289 66.2961 68.2876 65.8978C69.6755 64.6788 68.2031 63.6167 67.2858 62.6995C65.0047 60.4184 62.7357 58.1132 60.4546 55.82C58.9339 54.2873 57.4011 52.7545 55.8683 51.2458C55.3252 50.7148 54.6011 49.9303 53.9493 49.3509C52.8631 49.9785 51.8252 50.6786 50.7148 51.282C48.0475 52.7303 48.1199 53.2372 44.825 53.2372C41.0474 53.2372 37.9094 49.6647 37.9094 45.9836C37.9094 43.7991 38.7904 42.1094 40.2387 40.5404C40.9267 39.8042 41.9284 38.9956 42.6646 38.1869L42.6284 38.1507ZM27.1557 59.8753C26.685 59.8753 26.0574 60.6598 25.7436 60.9615C25.3453 61.3598 24.9229 61.746 24.5005 62.1443C23.9091 62.6995 22.4728 63.9909 22.4366 64.8599C22.4246 65.2099 22.666 65.5237 22.9074 65.7651C24.0901 66.9478 25.0436 65.5961 25.9005 64.7271C26.4195 64.2081 28.7126 62.1684 28.7851 61.5288C28.7851 60.1408 28.5558 59.8874 27.1437 59.8874L27.1557 59.8753ZM30.0644 72.2342C30.8489 72.2342 32.3213 70.472 32.8403 69.941C33.48 69.3013 34.9524 68.1668 34.9524 67.1651C34.9524 66.634 34.3852 65.8616 33.8179 65.8616C32.2369 65.8616 31.8024 66.8754 30.7885 67.8892C30.3661 68.3117 28.6281 69.8445 28.5799 70.4117C28.5799 71.5583 28.7971 72.2221 30.0523 72.2221L30.0644 72.2342ZM36.2318 78.2205C36.8352 78.2205 38.3318 76.4342 38.7542 76.0118C39.1646 75.6015 40.9629 74.0928 40.9629 73.4894C40.9629 72.4635 40.5646 71.8479 39.4904 71.8479C38.6335 71.8479 37.2818 73.5738 36.7145 74.1411C36.0145 74.8411 34.6024 75.8066 34.6024 76.917C34.6024 77.8946 35.3628 78.2205 36.2438 78.2205H36.2318ZM42.3991 84.2068C42.9905 84.2068 44.4267 82.493 44.8371 82.0947C45.2474 81.6843 46.9492 80.2481 46.9492 79.6567C46.9492 78.7032 46.8406 78.0274 45.7906 77.8946C44.7647 77.7618 42.5439 80.4654 41.856 81.1654C41.3853 81.624 40.5887 82.1912 40.5887 82.9154C40.5887 83.3378 41.0956 84.2189 41.5422 84.2189H42.3991V84.2068Z" fill="#2B2A29"/>
<path fill-rule="evenodd" clip-rule="evenodd" d="M46.6839 25.5989C47.4804 25.104 48.965 23.4143 49.7374 22.6419C51.234 21.1453 50.9926 20.735 54.0341 20.735C61.8066 20.7591 60.6721 22.8109 60.6721 9.13648C60.6721 3.87431 61.1669 4.68295 52.8392 4.68295C48.0477 4.68295 38.2113 4.42949 34.5181 4.69501C32.1767 4.86398 32.6836 6.74678 32.6836 8.96751C32.6836 22.7867 31.537 20.7471 39.1406 20.735C42.2786 20.735 41.9648 20.9884 43.5218 22.5574C44.3063 23.3419 45.8511 25.092 46.6718 25.5989H46.6839Z" fill="#FFED00"/>
<path fill-rule="evenodd" clip-rule="evenodd" d="M28.1318 6.05874C28.1318 1.7621 31.9457 0 35.7355 0H57.6411C61.4066 0 65.2446 1.78624 65.2446 6.05874V19.4073C65.2446 21.5677 63.8326 23.7039 61.9136 24.6694C60.1152 25.5867 57.0738 25.297 55.0703 25.297C54.8651 25.297 53.7186 25.2367 53.5737 25.285C53.4048 25.3453 51.5461 27.3126 51.353 27.4936C50.2909 28.5557 48.4202 30.9334 46.8512 30.9334C44.7873 30.9334 43.2546 28.7368 41.927 27.4092C41.7097 27.1919 39.9838 25.3574 39.7786 25.285C39.6338 25.2367 38.4872 25.297 38.2941 25.297C36.2061 25.3091 33.1768 25.6108 31.3181 24.597C29.4836 23.5953 28.1318 21.5073 28.1318 19.4073V6.05874ZM46.6822 24.2229C47.4546 23.547 48.3719 22.4608 48.9633 21.8694C50.9426 19.89 50.8944 19.6366 54.0444 19.6487C54.6599 19.6487 58.8842 19.9142 59.2583 19.6125C59.898 19.1055 59.5842 10.0778 59.5842 9.14846C59.5842 8.77431 59.6566 6.20357 59.4394 5.95012C59.0773 5.60011 53.4772 5.79322 52.8496 5.79322C50.0012 5.79322 47.1529 5.73287 44.3166 5.70873C41.1666 5.67252 37.751 5.57597 34.613 5.80529C34.432 5.81736 34.0337 5.86563 33.913 6.0346C33.6233 6.43289 33.7923 8.44844 33.7923 8.99156C33.7923 9.92088 33.4785 19.1297 34.1061 19.6245C34.4682 19.9142 38.5596 19.6607 39.1631 19.6607C42.3373 19.6607 42.277 19.7573 44.3287 21.797C44.9443 22.4125 45.8977 23.5349 46.6943 24.235L46.6822 24.2229Z" fill="#2B2A29"/>
<path d="M37.7037 14.9417C38.5502 14.9417 39.2365 14.2555 39.2365 13.4089C39.2365 12.5624 38.5502 11.8762 37.7037 11.8762C36.8572 11.8762 36.1709 12.5624 36.1709 13.4089C36.1709 14.2555 36.8572 14.9417 37.7037 14.9417Z" fill="#2B2A29"/>
<path d="M46.8511 14.9417C47.6977 14.9417 48.3839 14.2555 48.3839 13.4089C48.3839 12.5624 47.6977 11.8762 46.8511 11.8762C46.0046 11.8762 45.3184 12.5624 45.3184 13.4089C45.3184 14.2555 46.0046 14.9417 46.8511 14.9417Z" fill="#2B2A29"/>
<path d="M55.8316 14.9417C56.6781 14.9417 57.3644 14.2555 57.3644 13.4089C57.3644 12.5624 56.6781 11.8762 55.8316 11.8762C54.9851 11.8762 54.2988 12.5624 54.2988 13.4089C54.2988 14.2555 54.9851 14.9417 55.8316 14.9417Z" fill="#2B2A29"/>
</svg>
