<svg width="79" height="90" viewBox="0 0 79 90" fill="none" xmlns="http://www.w3.org/2000/svg">
<path fill-rule="evenodd" clip-rule="evenodd" d="M14.8697 49.613L14.8573 10.1382C14.8573 9.37001 14.8201 8.61421 14.8078 7.84602C14.7458 3.31125 16.0592 0.0526579 21.2754 0.0278777C27.3094 -0.00929257 33.3309 -0.00929257 39.3649 0.0278777C45.3493 0.065048 51.3337 -0.0216824 57.3182 0.0402681C59.4369 0.0650483 61.5432 0.610212 62.7822 2.46873C64.1947 4.59982 63.8354 7.58583 63.8354 10.0267L63.8477 49.6006C66.7594 49.6006 69.6835 49.6378 72.5951 49.613C74.6271 49.5882 76.4113 49.4767 77.7742 51.2733C78.5672 52.3141 78.9884 53.5407 78.6911 54.8416C78.1955 57.0099 76.2626 58.0878 74.8006 59.5003L74.7634 59.5375L54.3941 77.8996L54.3693 77.9244C53.9233 78.2961 53.502 78.7297 53.0807 79.1014L49.7106 82.137C49.4752 82.36 49.2274 82.5459 48.992 82.7565L43.6147 87.6258C39.1915 91.9004 37.4321 89.7321 33.7398 86.3868C32.8229 85.5567 31.8565 84.7637 30.9892 83.9336L20.185 74.1826C17.3725 71.9152 14.8697 69.2141 12.0943 66.8972L12.0571 66.86L1.92206 57.6914C1.57514 57.394 1.32733 57.2453 1.01757 56.8488C-0.332946 55.201 -0.3701 52.6858 1.09193 51.0998L1.41407 50.7157L1.52557 50.629C2.71502 49.6626 3.85491 49.5882 5.31694 49.613L14.8821 49.6254L14.8697 49.613ZM20.755 14.6358L58.0368 14.611L58.012 8.15578C58.012 7.78407 58.0492 6.50789 57.9748 5.91317C57.2934 5.83883 55.6579 5.88839 55.2242 5.88839C49.9337 5.86361 44.6555 5.85122 39.3649 5.90078C34.1115 5.95034 28.8457 5.876 23.5923 5.88839C23.1463 5.88839 21.4241 5.82644 20.7302 5.90078C20.6559 6.47072 20.693 7.67256 20.693 8.01949C20.693 10.1878 20.8417 12.4304 20.755 14.611V14.6358ZM70.526 55.5479C67.6887 55.5603 64.8513 55.4983 62.0264 55.4859C57.9748 55.4611 58.0244 53.8133 58.0244 50.3936L58.0368 31.6102C58.0368 27.9056 57.9377 24.1886 58.012 20.4839H20.7426C20.7674 22.0575 20.7054 23.631 20.7054 25.1921V50.1582C20.7054 53.392 20.978 55.4983 16.8149 55.4859C13.928 55.4735 11.0412 55.4859 8.15428 55.4859C8.51359 55.7833 8.84812 56.0683 9.13309 56.3408L16.2698 62.7961C18.4133 64.8033 20.7798 66.6618 22.8365 68.7557L25.0296 70.7257L25.0544 70.7629C25.3889 71.0974 25.773 71.3948 26.1199 71.7169C29.3042 74.7649 32.7114 77.6022 35.9824 80.5511C36.7258 81.2201 37.5064 81.8768 38.225 82.5831C38.5719 82.93 38.9436 83.2769 39.3277 83.6114L47.1211 76.6358L47.1583 76.611C48.6699 75.4216 50.0328 73.9348 51.5196 72.6958C51.6807 72.5595 51.8293 72.3736 51.9904 72.2249C52.1763 72.0515 52.3869 71.9152 52.5727 71.7417C52.9321 71.4196 53.3038 71.1098 53.6755 70.7629L70.526 55.5603V55.5479Z" fill="#2B2A29"/>
<path fill-rule="evenodd" clip-rule="evenodd" d="M30.7649 12.3311C30.9879 13.9914 34.4943 14.9207 33.5775 9.12211C33.3296 7.54857 29.9472 6.32195 30.7649 12.3311Z" fill="#E31E24"/>
<path fill-rule="evenodd" clip-rule="evenodd" d="M45.1519 12.3311C45.2758 13.5205 46.9113 14.0409 47.6671 13.0373C48.1255 12.4426 48.1007 9.98933 47.9644 9.12202C47.7538 7.80867 46.2174 7.44936 45.4493 8.391C44.9165 9.04768 45.0528 11.3646 45.1519 12.3187V12.3311Z" fill="#E31E24"/>
<path fill-rule="evenodd" clip-rule="evenodd" d="M37.9757 12.4426C38.1987 13.6445 39.8342 13.9666 40.5032 13.0126C40.8873 12.4674 40.8873 9.80353 40.7387 9.01056C40.5156 7.80873 38.9049 7.4618 38.1987 8.42823C37.8146 8.961 37.8146 11.662 37.9633 12.455L37.9757 12.4426Z" fill="#E31E24"/>
<path fill-rule="evenodd" clip-rule="evenodd" d="M55.0144 12.7898C55.2499 12.2818 55.2746 9.29576 55.0516 8.72582C54.6427 7.64788 52.9577 7.54876 52.4745 8.63908C52.2391 9.15947 52.2391 12.1827 52.4373 12.7278C52.8586 13.8305 54.5065 13.8677 55.0144 12.7898Z" fill="#E31E24"/>
<path fill-rule="evenodd" clip-rule="evenodd" d="M24.635 7.92036C23.272 8.32923 23.557 9.65497 23.557 11.179C23.5694 12.5047 23.7676 13.9543 25.366 13.5207C26.6917 13.1614 26.4067 11.7241 26.4067 10.2621C26.4067 9.6178 26.4687 8.88679 26.1341 8.42835C25.8616 8.05665 25.2421 7.7469 24.635 7.93275V7.92036Z" fill="#E31E24"/>
<path d="M32.3377 49.8485V53.962H49.1387V57.902H32.3377V68.5327H26.7622V57.9268H23.8877V53.962H26.7622V49.8485H23.8877V45.0287H26.7622V26.4684H39.9329C43.6994 26.4684 46.5492 26.8525 48.482 27.6083C50.4273 28.3517 51.9884 29.6898 53.1531 31.5979C54.3178 33.5183 54.9001 35.637 54.9001 37.9416C54.9001 40.2709 54.4664 42.2162 53.6115 43.7402C52.7442 45.2641 51.6167 46.4908 50.1795 47.3952C48.7546 48.2997 47.1191 48.944 45.2854 49.3033C43.4393 49.6626 41.5312 49.8485 39.5612 49.8485H32.3377ZM39.5488 45.0287C40.8249 45.0287 42.0516 44.9296 43.2162 44.7314C44.3809 44.5331 45.3969 44.1614 46.2766 43.6287C47.1439 43.0959 47.8377 42.3773 48.3581 41.4604C48.8785 40.5435 49.1263 39.3789 49.1263 37.9416C49.1263 36.7026 48.8909 35.637 48.4201 34.7821C47.9616 33.9148 47.3174 33.221 46.512 32.6758C45.6943 32.1307 44.7526 31.7342 43.6623 31.4864C42.5719 31.2386 41.3949 31.1147 40.1311 31.1147H32.313V45.0411H39.524L39.5488 45.0287Z" fill="#2B2A29"/>
</svg>
