<svg width="90" height="84" viewBox="0 0 90 84" fill="none" xmlns="http://www.w3.org/2000/svg">
<path fill-rule="evenodd" clip-rule="evenodd" d="M0 0.0147034L64.846 0L89.9183 25.0724V83.0193L0 83.034V0.0147034H0ZM0.171189 0.185892V82.8639L89.7482 82.8492V25.1438L64.7756 0.171189L0.171189 0.185892Z" fill="#9D9E9E"/>
<path fill-rule="evenodd" clip-rule="evenodd" d="M0.171875 0.185974H64.7837L89.7552 25.1575V82.8629H0.171875V0.185974Z" fill="#2B2A29"/>
<path fill-rule="evenodd" clip-rule="evenodd" d="M1.94824 1.96185H64.2779L88.2097 25.8937V81.0869H1.94824V1.96185Z" fill="#FEFEFE"/>
<path fill-rule="evenodd" clip-rule="evenodd" d="M3.72559 3.73889H63.543L86.433 26.6289V79.3099H3.72559V3.73889Z" fill="#E31E24"/>
<path fill-rule="evenodd" clip-rule="evenodd" d="M69.8389 0.185974H90.0003V20.3474H88.4575L69.8389 1.72773V0.185974Z" fill="#FFED00"/>
<path fill-rule="evenodd" clip-rule="evenodd" d="M45.3693 55.0577C45.4618 54.9149 45.5521 54.7699 45.6435 54.6323C46.135 53.8888 46.6223 53.141 47.1096 52.3943C48.9664 49.546 50.8127 46.6915 52.6601 43.8359L71.0361 15.3639L79.9894 24.208L80.001 28.7639V75.53H70.2401L70.281 73.7131C70.3157 72.1965 70.343 70.68 70.343 69.1635V52.4993C70.343 45.7673 70.4522 39.0363 70.4648 32.3053C70.1497 32.8 69.8252 33.2894 69.508 33.783C68.1963 35.8289 66.8782 37.8695 65.5591 39.9111C60.5978 47.5926 55.6281 55.2698 50.6636 62.9492C50.0082 63.9637 49.354 64.9783 48.6839 65.9823C48.477 66.2921 48.2817 66.6061 48.0632 66.9075L47.5307 67.6438H42.9233L42.3982 66.834C37.6364 59.4918 32.883 52.1443 28.157 44.779C25.4999 40.639 22.8428 36.4989 20.2319 32.3305V75.5311H10.4814V10.0948L12.3036 10.1411C13.3055 10.1663 14.3085 10.1946 15.3115 10.2041L16.263 10.2135L16.7818 11.0117C23.8016 21.7966 30.8193 32.5836 37.8202 43.3811C39.6949 46.2714 41.5685 49.1627 43.4358 52.0572C44.0807 53.057 44.7413 54.0484 45.3704 55.0587L45.3693 55.0577Z" fill="#FEFEFE"/>
<path d="M72.8028 67.9421V68.462C72.8028 70.0132 73.4466 71.3092 74.7321 72.3458C75.5765 72.9497 76.4797 73.249 77.4522 73.249H77.8103C79.3815 73.249 80.6617 72.5621 81.649 71.1779C82.1888 70.3283 82.4545 69.3316 82.4545 68.1889C82.4545 66.1462 81.6301 64.6549 79.9801 63.717C79.3027 63.3536 78.5854 63.1719 77.8398 63.1719H77.4228C75.7634 63.1719 74.4328 63.9481 73.4371 65.4993C73.015 66.3437 72.8039 67.1586 72.8039 67.9442L72.8028 67.9421ZM77.6927 60.853C80.5347 60.853 82.7045 62.0608 84.2116 64.4763C84.8154 65.64 85.1148 66.8331 85.1148 68.0597V68.3297C85.1148 70.573 84.2357 72.4487 82.4839 73.9547C81.1144 75.0396 79.4991 75.5795 77.6392 75.5795C75.023 75.5795 72.9456 74.5534 71.4102 72.5012C70.5458 71.2346 70.1184 69.7968 70.1184 68.1858C70.1184 65.5885 71.1938 63.5364 73.3531 62.0293C74.6197 61.2437 76.0628 60.8509 77.6927 60.8509V60.853ZM63.629 57.6771L63.6731 57.7306V60.853H67.7575C67.7963 60.853 67.8163 60.873 67.8163 60.9118L67.769 63.0081H63.6731V70.8481C63.6731 72.0065 64.0554 72.7627 64.822 73.1061C65.1214 73.2479 65.4459 73.3225 65.804 73.3225H66.1621C66.7272 73.3225 67.3405 73.1702 68.0032 72.8604V74.9325C67.5611 75.3642 66.7902 75.5805 65.6864 75.5805C63.5512 75.5805 62.1271 74.775 61.4151 73.165C61.1451 72.581 61.0128 71.8154 61.0128 70.8775V58.4375C61.0517 58.3786 61.9255 58.1234 63.63 57.6771H63.629ZM43.5956 60.853H46.1288C46.1677 60.8635 46.1824 60.8824 46.1824 60.9118V68.9924C46.1824 70.9857 46.8986 72.2859 48.328 72.8898C48.8332 73.1009 49.393 73.2091 49.9969 73.2091H50.2426C52.2654 73.2091 53.6296 72.247 54.3417 70.3325C54.5234 69.7538 54.6116 69.0018 54.6116 68.0744V60.9118C54.6116 60.873 54.6316 60.853 54.6704 60.853H57.2036C57.2372 60.8635 57.2572 60.8824 57.2572 60.9118V75.3642C57.2572 75.403 57.2362 75.423 57.2036 75.423L54.7471 75.3936C54.7649 73.9547 54.7586 73.3025 54.7586 73.2332C53.512 74.7991 51.8873 75.5795 49.8792 75.5795H49.7217C46.9722 75.5795 45.0828 74.4799 44.0567 72.2849C43.7133 71.3764 43.5358 70.3608 43.5358 69.236V60.9108C43.5452 60.8719 43.5652 60.852 43.5946 60.852L43.5956 60.853ZM31.5441 60.0191L27.7937 68.0303H35.3733L31.6177 60.0191H31.5441ZM32.1333 54.958C32.4232 55.4443 35.702 62.253 41.9709 75.3789C41.9909 75.3789 42.0255 75.4377 42.0738 75.5511L42.0003 75.5805H38.9662C38.775 75.2665 37.9601 73.5525 36.5212 70.4459H26.6836C26.6448 70.4459 26.0461 71.7125 24.8867 74.2457C24.455 75.1247 24.224 75.5711 24.1946 75.5805H21.1604L21.0869 75.5511L31.185 54.958H32.1323H32.1333Z" fill="#2B2A29"/>
</svg>
