<svg width="39" height="39" viewBox="0 0 39 39" fill="none" xmlns="http://www.w3.org/2000/svg">
<g filter="url(#filter0_ddddii_649_106)">
<rect x="3" y="3" width="32" height="32" rx="5" fill="white"/>
</g>
<path d="M10.7569 8.69678C10.2104 8.69678 9.68627 8.91388 9.29983 9.30031C8.91339 9.68675 8.69629 10.2109 8.69629 10.7574V23.121C8.69629 23.6675 8.91339 24.1916 9.29983 24.5781C9.68627 24.9645 10.2104 25.1816 10.7569 25.1816H14.8781V28.2725C14.8781 28.5458 14.9867 28.8078 15.1799 29.0011C15.3731 29.1943 15.6352 29.3028 15.9084 29.3028H16.4236C16.6811 29.3028 16.9387 29.1998 17.1448 29.004L20.9569 25.1816H27.2417C27.7882 25.1816 28.3124 24.9645 28.6988 24.5781C29.0852 24.1916 29.3024 23.6675 29.3024 23.121V10.7574C29.3024 10.2109 29.0852 9.68675 28.6988 9.30031C28.3124 8.91388 27.7882 8.69678 27.2417 8.69678H10.7569ZM10.7569 10.7574H27.2417V23.121H20.112L16.9387 26.2944V23.121H10.7569V10.7574Z" fill="#2B2A29"/>
<path d="M16.9902 12.8591C17.5465 12.4882 18.2781 12.3027 19.195 12.3027C20.1635 12.3027 20.9362 12.5191 21.4926 12.9415C22.049 13.3742 22.3272 13.9512 22.3272 14.6724C22.3272 15.1258 22.1726 15.5276 21.8738 15.9088C21.575 16.2797 21.1835 16.5682 20.7096 16.7846C20.4417 16.9391 20.2665 17.0936 20.1738 17.2688C20.0811 17.4542 20.0296 17.6809 20.0296 17.9694H17.969C17.969 17.4542 18.072 17.1039 18.2678 16.8567C18.4841 16.6094 18.8344 16.3209 19.3702 15.9912C19.6381 15.847 19.8544 15.6615 20.0296 15.4349C20.1738 15.2185 20.2562 14.9609 20.2562 14.6724C20.2562 14.3633 20.1635 14.1367 19.9781 13.9615C19.7926 13.7761 19.5144 13.6936 19.195 13.6936C18.9168 13.6936 18.6902 13.7658 18.4841 13.91C18.3193 14.0542 18.2162 14.2706 18.2162 14.5591H16.1865C16.135 13.8482 16.4235 13.23 16.9902 12.8591Z" fill="#E31E24"/>
<path d="M17.969 21.0603V18.9997H20.0296V21.0603H17.969Z" fill="#E31E24"/>
<defs>
<filter id="filter0_ddddii_649_106" x="0" y="0" width="39" height="39" filterUnits="userSpaceOnUse" color-interpolation-filters="sRGB">
<feFlood flood-opacity="0" result="BackgroundImageFix"/>
<feColorMatrix in="SourceAlpha" type="matrix" values="0 0 0 0 0 0 0 0 0 0 0 0 0 0 0 0 0 0 127 0" result="hardAlpha"/>
<feOffset dx="1" dy="1"/>
<feGaussianBlur stdDeviation="1.5"/>
<feColorMatrix type="matrix" values="0 0 0 0 0.709804 0 0 0 0 0.709804 0 0 0 0 0.709804 0 0 0 0.9 0"/>
<feBlend mode="normal" in2="BackgroundImageFix" result="effect1_dropShadow_649_106"/>
<feColorMatrix in="SourceAlpha" type="matrix" values="0 0 0 0 0 0 0 0 0 0 0 0 0 0 0 0 0 0 127 0" result="hardAlpha"/>
<feOffset dx="-1" dy="-1"/>
<feGaussianBlur stdDeviation="1"/>
<feColorMatrix type="matrix" values="0 0 0 0 1 0 0 0 0 1 0 0 0 0 1 0 0 0 0.9 0"/>
<feBlend mode="normal" in2="effect1_dropShadow_649_106" result="effect2_dropShadow_649_106"/>
<feColorMatrix in="SourceAlpha" type="matrix" values="0 0 0 0 0 0 0 0 0 0 0 0 0 0 0 0 0 0 127 0" result="hardAlpha"/>
<feOffset dx="1" dy="-1"/>
<feGaussianBlur stdDeviation="1"/>
<feColorMatrix type="matrix" values="0 0 0 0 0.709804 0 0 0 0 0.709804 0 0 0 0 0.709804 0 0 0 0.2 0"/>
<feBlend mode="normal" in2="effect2_dropShadow_649_106" result="effect3_dropShadow_649_106"/>
<feColorMatrix in="SourceAlpha" type="matrix" values="0 0 0 0 0 0 0 0 0 0 0 0 0 0 0 0 0 0 127 0" result="hardAlpha"/>
<feOffset dx="-1" dy="1"/>
<feGaussianBlur stdDeviation="1"/>
<feColorMatrix type="matrix" values="0 0 0 0 0.709804 0 0 0 0 0.709804 0 0 0 0 0.709804 0 0 0 0.2 0"/>
<feBlend mode="normal" in2="effect3_dropShadow_649_106" result="effect4_dropShadow_649_106"/>
<feBlend mode="normal" in="SourceGraphic" in2="effect4_dropShadow_649_106" result="shape"/>
<feColorMatrix in="SourceAlpha" type="matrix" values="0 0 0 0 0 0 0 0 0 0 0 0 0 0 0 0 0 0 127 0" result="hardAlpha"/>
<feOffset dx="-1" dy="-1"/>
<feGaussianBlur stdDeviation="1"/>
<feComposite in2="hardAlpha" operator="arithmetic" k2="-1" k3="1"/>
<feColorMatrix type="matrix" values="0 0 0 0 0.709804 0 0 0 0 0.709804 0 0 0 0 0.709804 0 0 0 0.5 0"/>
<feBlend mode="normal" in2="shape" result="effect5_innerShadow_649_106"/>
<feColorMatrix in="SourceAlpha" type="matrix" values="0 0 0 0 0 0 0 0 0 0 0 0 0 0 0 0 0 0 127 0" result="hardAlpha"/>
<feOffset dx="1" dy="1"/>
<feGaussianBlur stdDeviation="1"/>
<feComposite in2="hardAlpha" operator="arithmetic" k2="-1" k3="1"/>
<feColorMatrix type="matrix" values="0 0 0 0 1 0 0 0 0 1 0 0 0 0 1 0 0 0 0.3 0"/>
<feBlend mode="normal" in2="effect5_innerShadow_649_106" result="effect6_innerShadow_649_106"/>
</filter>
</defs>
</svg>
