<svg width="72" height="90" viewBox="0 0 72 90" fill="none" xmlns="http://www.w3.org/2000/svg">
<path fill-rule="evenodd" clip-rule="evenodd" d="M35.9009 0L0 16.7821V56.2943C0 65.2164 3.75295 73.7844 10.4799 80.1574C17.2069 86.4595 26.3415 90 35.8301 90C45.3186 90 54.4532 86.4595 61.1802 80.1574C67.9072 73.8552 71.6601 65.2872 71.6601 56.2943V16.7821L35.7592 0H35.9009ZM56.2943 76.6876L35.9009 67.1282V73.3596L50.9835 80.4406C46.4516 82.919 41.2825 84.2644 36.0425 84.2644C30.8025 84.2644 25.6334 82.9898 21.1015 80.5822C16.5696 78.1039 12.7459 74.6341 10.1259 70.3147C7.5059 66.0661 6.08969 61.1802 6.08969 56.2943V20.2518L35.9717 6.23131L65.8537 20.2518V30.8025L35.9717 16.7821V23.0134L65.8537 37.0338V47.5846L35.9717 33.5641V39.7954L65.8537 53.8159V56.2943C65.8537 58.8434 65.4996 61.3926 64.7207 63.871L35.9009 50.417V56.6483L62.5256 69.1109C60.9677 71.9434 58.8434 74.5633 56.3651 76.7585L56.2943 76.6876Z" fill="black"/>
<path fill-rule="evenodd" clip-rule="evenodd" d="M56.2923 76.6878L35.8989 67.1284V73.3597L50.9815 80.4407C46.4497 82.9191 41.2805 84.2645 36.0406 84.2645L35.8989 6.23145L65.7809 20.2519V30.8027L35.8989 16.7822V23.0135L65.7809 37.034V47.5847L35.8989 33.5643V39.7956L65.7809 53.816V56.2944C65.7809 58.8436 65.4269 61.3927 64.648 63.8711L35.8281 50.4171V56.6484L62.4528 69.1111C60.895 71.9435 58.7707 74.5635 56.2923 76.7586V76.6878Z" fill="#FFED00"/>
</svg>
