<?xml version="1.0" standalone="no"?>
<!DOCTYPE svg PUBLIC "-//W3C//DTD SVG 20010904//EN"
 "http://www.w3.org/TR/2001/REC-SVG-20010904/DTD/svg10.dtd">
<svg version="1.0" xmlns="http://www.w3.org/2000/svg"
 width="294.000000pt" height="294.000000pt" viewBox="0 0 294.000000 294.000000"
 preserveAspectRatio="xMidYMid meet">
<metadata>
Created by potrace 1.11, written by Peter Selinger 2001-2013
</metadata>
<g transform="translate(0.000000,294.000000) scale(0.100000,-0.100000)"
fill="#000000" stroke="none">
<path d="M1541 2926 c-9 -11 -9 -15 1 -19 10 -4 8 -10 -6 -21 -16 -13 -22 -13
-28 -3 -4 6 -8 7 -8 2 0 -6 -9 -11 -20 -12 -11 -1 -18 2 -15 8 4 5 -6 4 -22
-2 -19 -7 -29 -7 -31 0 -2 6 -8 11 -13 11 -6 0 -8 -4 -5 -8 7 -12 -38 -10 -46
2 -5 7 -8 7 -8 1 0 -12 -59 -13 -77 -2 -7 5 -19 -3 -29 -18 -9 -13 -20 -23
-24 -20 -4 3 -14 -3 -21 -12 -8 -10 -9 -14 -2 -10 6 4 14 4 16 -1 8 -12 -97
-11 -112 1 -11 9 -13 9 -8 1 5 -8 -7 -12 -38 -11 -25 0 -45 5 -45 11 0 8 -3 8
-8 0 -9 -13 -43 -15 -59 -2 -7 6 -14 4 -19 -3 -5 -8 -3 -9 6 -4 9 5 11 4 6 -4
-6 -9 -11 -9 -21 -1 -8 7 -19 9 -25 5 -6 -4 -17 -2 -25 5 -11 9 -16 7 -24 -8
-6 -11 -8 -22 -5 -25 3 -3 -4 -3 -17 0 -17 5 -20 3 -14 -8 7 -12 6 -12 -7 -1
-14 11 -19 10 -34 -13 -11 -17 -20 -22 -24 -15 -10 15 -21 15 -31 -2 -5 -7 -9
-8 -9 -3 0 6 -9 11 -20 12 -12 1 -18 -3 -14 -9 4 -6 -2 -6 -15 1 -15 8 -21 9
-21 1 0 -6 -5 -8 -12 -4 -8 5 -9 2 -5 -10 7 -17 -15 -61 -25 -51 -3 3 -4 -14
-3 -37 1 -24 -3 -49 -9 -57 -8 -11 -8 -13 1 -7 7 4 13 2 13 -3 0 -6 -6 -12
-12 -12 -7 -1 -17 -2 -23 -4 -5 -1 -15 -3 -21 -3 -7 -1 -12 -17 -12 -36 0 -45
-12 -96 -22 -96 -4 0 -11 -7 -14 -16 -3 -9 -2 -12 5 -8 6 3 5 -3 -2 -14 -7
-12 -17 -18 -22 -15 -5 3 -7 -21 -5 -55 1 -33 1 -60 -2 -59 -3 1 -20 -13 -38
-31 -27 -28 -31 -36 -21 -54 9 -16 8 -19 -2 -13 -8 6 -11 4 -7 -7 4 -8 -2 -21
-12 -28 -11 -8 -17 -24 -16 -42 1 -16 -2 -32 -7 -35 -6 -3 -7 -1 -3 5 4 8 2
10 -8 6 -17 -7 -11 -30 10 -38 12 -4 11 -9 -6 -26 -11 -11 -18 -26 -14 -31 4
-6 0 -15 -7 -20 -8 -5 -9 -9 -3 -9 12 0 13 -38 1 -57 -5 -7 -13 -13 -18 -13
-6 0 -7 6 -3 13 6 9 5 9 -7 0 -13 -10 -20 -13 -34 -13 -3 0 -1 -8 4 -18 6 -11
6 -24 1 -32 -6 -9 -5 -17 2 -21 6 -4 2 -10 -11 -14 l-21 -6 0 -571 0 -571 54
-53 c30 -28 57 -50 60 -46 3 3 6 -2 6 -11 0 -10 5 -17 10 -17 6 0 10 -7 10
-15 0 -8 9 -15 20 -15 18 0 25 -10 21 -32 -1 -8 15 -12 32 -9 4 0 7 -5 7 -13
0 -16 16 -24 47 -21 12 1 20 -2 17 -7 -3 -4 0 -8 6 -8 6 0 8 -5 4 -12 -5 -7
-2 -9 9 -5 18 7 60 -26 49 -39 -4 -4 2 -2 12 6 18 13 19 13 14 -2 -5 -11 0
-18 14 -21 11 -3 17 -10 13 -17 -4 -6 -1 -18 7 -27 11 -14 11 -16 -2 -9 -8 4
-6 0 5 -9 11 -8 21 -12 22 -8 7 21 81 0 118 -33 39 -34 53 -64 32 -64 -20 0 9
-21 32 -23 11 -1 21 -5 21 -9 0 -4 7 -8 15 -8 13 0 14 -4 5 -20 -10 -19 -6
-25 14 -21 5 1 13 -4 17 -11 7 -11 9 -11 9 0 0 7 5 10 10 7 6 -3 10 -19 10
-34 l0 -27 150 0 c137 1 150 3 165 21 9 11 14 14 10 8 -3 -7 -4 -13 0 -13 3 0
9 10 14 22 8 23 51 33 63 14 5 -8 8 -7 8 2 0 9 5 10 18 3 13 -7 23 -6 31 2 9
9 14 9 20 -2 11 -17 19 -3 17 32 -1 20 3 27 17 27 11 0 16 5 12 13 -4 6 1 3 9
-7 9 -11 16 -16 16 -10 0 5 18 10 40 10 23 1 40 -3 40 -10 0 -6 9 2 19 18 26
39 72 68 87 55 8 -7 14 -6 17 3 3 7 6 8 6 2 1 -6 12 -9 26 -6 17 3 25 11 25
26 0 13 3 17 8 9 10 -16 42 -10 58 12 7 10 20 15 29 12 8 -4 15 -3 15 1 0 4
18 7 41 5 31 -1 40 1 35 12 -3 10 0 12 11 8 9 -4 14 -2 10 3 -3 5 3 10 14 10
10 0 19 -5 19 -11 0 -5 4 -4 9 3 4 8 11 13 15 13 21 -3 28 1 23 12 -3 9 4 12
25 11 22 -2 32 3 35 16 4 14 13 18 38 16 37 -4 49 1 58 28 5 13 11 15 20 8 6
-5 21 -9 31 -9 24 0 57 27 49 40 -3 5 4 4 15 -2 18 -10 24 -8 38 14 12 19 20
23 29 15 9 -8 15 -8 20 0 5 8 11 8 19 1 9 -7 17 -7 26 2 10 9 11 9 6 0 -5 -9
-2 -11 8 -7 8 3 18 14 21 25 4 12 11 16 18 12 20 -12 36 -12 31 1 -3 7 7 18
21 24 14 6 25 8 25 3 0 -4 7 -8 15 -8 8 0 15 5 15 10 0 5 6 7 14 4 10 -4 13 3
10 29 -2 23 1 32 8 28 7 -5 8 -2 2 7 -13 22 -14 100 0 92 8 -5 8 -3 0 8 -14
19 -16 61 -2 53 7 -5 8 -2 2 7 -13 22 -14 100 0 92 8 -5 8 -3 0 8 -14 19 -16
61 -2 53 7 -5 8 -2 2 7 -13 22 -14 100 0 92 8 -5 8 -3 0 8 -14 19 -16 61 -2
53 7 -5 8 -2 2 7 -13 22 -14 100 0 92 8 -5 8 -3 0 8 -14 19 -16 61 -2 53 7 -5
8 -2 2 7 -13 22 -14 100 0 92 8 -5 8 -3 0 8 -14 19 -16 61 -2 53 7 -5 8 -2 2
7 -13 22 -14 100 0 92 8 -5 8 -3 0 8 -14 19 -16 61 -2 53 7 -5 8 -2 2 7 -13
22 -14 100 0 92 8 -5 8 -3 0 8 -14 19 -16 61 -2 53 7 -5 8 -2 2 7 -13 22 -14
100 0 92 8 -5 8 -3 0 8 -14 19 -16 61 -2 53 7 -5 8 -2 2 7 -13 22 -14 100 0
92 8 -5 8 -3 0 8 -14 19 -16 61 -2 53 7 -5 8 -2 2 7 -13 22 -14 100 0 92 8 -5
8 -3 0 8 -14 19 -16 61 -2 53 7 -5 8 -2 2 7 -13 22 -14 100 0 92 8 -5 8 -3 0
8 -14 19 -16 61 -2 53 7 -5 8 -2 2 7 -13 22 -14 100 0 92 8 -5 8 -3 0 8 -14
19 -16 61 -2 53 7 -5 8 -2 2 7 -13 22 -14 43 -1 51 9 6 9 8 -1 8 -7 0 -11 4
-7 9 3 5 -1 15 -8 23 -7 7 -16 20 -19 30 -5 11 -17 16 -40 14 -18 -1 -39 2
-45 7 -9 6 -13 5 -13 -3 0 -9 -3 -10 -13 -1 -8 6 -18 7 -22 3 -5 -4 -5 -2 -2
4 4 7 0 14 -8 18 -8 3 -15 12 -15 20 0 8 -13 16 -30 18 -16 3 -30 1 -30 -3 0
-4 -13 -4 -30 1 -16 5 -30 5 -30 1 0 -3 -9 -7 -19 -7 -11 0 -19 3 -19 6 2 19
-3 30 -12 25 -5 -3 -10 -2 -10 3 0 17 -90 6 -104 -13 -7 -10 -18 -15 -24 -11
-7 4 -12 3 -12 -2 0 -5 -17 -6 -40 -2 -25 5 -40 4 -40 -3 0 -5 -7 -4 -15 3 -8
7 -15 8 -15 3 0 -6 -11 -8 -24 -6 -21 4 -24 2 -19 -16 4 -17 2 -20 -13 -14
-13 5 -16 3 -12 -9 6 -15 -3 -18 -49 -18 -13 0 -23 -5 -23 -11 0 -5 -5 -7 -10
-4 -6 4 -8 10 -5 15 3 5 -7 5 -24 0 -19 -5 -33 -4 -40 3 -7 7 -11 7 -11 1 0
-12 -29 -12 -48 0 -6 4 -12 3 -12 -2 0 -5 -14 -8 -30 -6 -25 3 -32 -1 -40 -21
-5 -14 -12 -25 -15 -25 -4 0 -3 5 0 10 3 6 -4 10 -16 10 -12 0 -20 -3 -16 -6
3 -3 0 -12 -6 -19 -9 -9 -17 -10 -31 -3 -13 7 -16 7 -12 -1 5 -8 -11 -10 -54
-6 -46 4 -60 2 -54 -6 5 -8 3 -9 -7 -3 -26 16 -44 13 -62 -9 -10 -12 -15 -15
-11 -7 7 13 5 13 -9 1 -12 -9 -17 -10 -17 -2 0 7 -5 9 -10 6 -6 -4 -7 -11 -4
-17 4 -6 -1 -6 -14 1 -27 14 -35 14 -26 -1 5 -9 2 -9 -9 1 -12 9 -17 10 -17 2
0 -7 -5 -9 -10 -6 -6 4 -9 1 -8 -7 2 -7 -5 -12 -14 -12 -10 1 -18 -1 -18 -5 0
-9 -37 -7 -46 2 -13 12 -22 8 -29 -13 -4 -11 -11 -17 -17 -14 -6 4 -6 -2 1
-15 11 -21 5 -27 -22 -22 -5 1 -6 -12 -4 -29 5 -29 -2 -36 -28 -30 -5 1 -7 -2
-3 -6 4 -4 2 -14 -5 -22 -9 -13 -9 -14 1 -8 11 7 17 -6 12 -29 -7 -30 -9 -41
-9 -53 -1 -7 -4 -11 -8 -9 -5 3 -14 -1 -21 -9 -7 -8 -9 -14 -4 -14 17 0 8 -33
-10 -38 -11 -3 -17 -10 -14 -18 3 -8 0 -14 -7 -14 -8 0 -6 -4 3 -10 11 -7 11
-10 2 -10 -7 0 -10 -5 -6 -12 4 -6 3 -8 -2 -5 -6 3 -16 2 -24 -4 -13 -7 -13
-9 0 -9 13 0 13 -1 0 -10 -8 -5 -10 -10 -4 -10 18 0 4 -49 -17 -61 -11 -5 -19
-14 -19 -20 0 -6 4 -8 8 -5 4 2 8 -4 8 -15 0 -10 -4 -19 -8 -19 -4 0 -8 -5 -8
-11 0 -5 5 -7 12 -3 7 5 8 3 4 -5 -5 -7 -14 -10 -21 -7 -20 7 -26 -4 -14 -27
8 -14 8 -18 0 -13 -6 4 -11 3 -11 -3 0 -5 6 -12 13 -14 9 -4 9 -6 -1 -6 -7 -1
-11 -5 -7 -11 3 -5 -3 -18 -14 -29 -11 -11 -18 -27 -15 -34 3 -8 -2 -17 -11
-21 -9 -3 -13 -10 -10 -16 4 -6 -1 -7 -12 -3 -15 6 -16 4 -6 -8 13 -17 14 -59
0 -59 -4 0 -5 -4 -2 -10 3 -5 -1 -10 -9 -10 -9 0 -16 -7 -16 -16 0 -9 5 -12
13 -8 8 5 8 3 -2 -9 -7 -9 -18 -14 -24 -10 -6 3 -7 1 -3 -5 4 -7 2 -12 -4 -12
-7 0 -10 -7 -6 -15 3 -8 1 -15 -4 -15 -5 0 -6 -7 -3 -17 4 -10 2 -14 -4 -10
-6 4 -16 0 -22 -7 -8 -10 -9 -16 -1 -21 7 -4 7 -12 0 -25 -7 -13 -6 -20 3 -24
7 -3 3 -7 -10 -11 -13 -4 -20 -11 -17 -16 3 -5 2 -9 -3 -9 -9 0 -8 -224 1
-246 3 -8 1 -14 -4 -14 -5 0 -5 -13 0 -30 5 -16 6 -30 2 -30 -4 0 -6 -40 -5
-90 2 -82 1 -90 -20 -105 -17 -12 -19 -17 -9 -24 11 -7 10 -11 -3 -24 -17 -17
-39 -18 -64 -3 -9 6 -12 5 -8 -1 4 -6 -6 -10 -23 -11 -17 0 -30 4 -30 9 0 6 6
7 13 3 9 -6 9 -4 1 7 -6 8 -11 28 -10 44 1 17 -3 36 -8 43 -5 7 -5 12 2 12 5
0 10 11 10 25 0 14 -5 22 -11 18 -6 -4 -7 -1 -2 7 10 17 13 117 4 152 -5 17
-3 30 3 34 7 5 8 2 3 -6 -5 -9 -4 -11 4 -6 9 6 9 11 1 21 -6 7 -7 21 -3 30 5
14 3 16 -7 10 -9 -6 -11 -4 -5 5 10 17 13 117 4 152 -5 17 -3 30 3 34 7 5 8 2
3 -6 -5 -9 -4 -11 4 -6 9 6 9 11 1 21 -6 7 -7 21 -3 30 4 12 3 16 -4 12 -7 -5
-9 0 -6 13 3 11 10 20 15 20 6 0 8 7 4 15 -3 8 0 14 7 12 7 -1 13 5 13 13 1 8
2 21 3 28 0 7 6 10 11 7 9 -6 14 8 11 29 -1 4 3 14 9 20 5 7 7 16 3 20 -20 20
7 83 30 69 5 -3 4 4 -2 15 -8 15 -7 23 3 31 7 6 16 8 19 5 4 -4 5 10 3 30 -1
20 1 39 6 42 5 3 6 9 4 13 -3 4 5 13 17 20 26 14 53 51 37 51 -7 0 -7 6 -1 18
7 13 6 23 -1 30 -9 9 -9 12 -1 12 6 0 9 9 6 20 -3 12 -2 20 3 19 21 -4 35 2
29 11 -4 6 -1 17 5 25 7 8 9 15 4 15 -4 0 0 6 11 13 12 10 15 16 6 21 -7 5 -8
13 -2 24 5 9 7 27 5 40 -3 16 1 22 14 22 14 0 15 2 2 10 -13 8 -12 10 3 10 11
0 15 5 11 11 -9 15 16 60 29 52 6 -4 7 4 3 21 -4 17 -3 25 3 22 9 -6 26 21 23
37 -1 4 3 7 9 7 8 0 8 4 0 14 -9 11 -8 15 4 20 11 4 14 2 9 -7 -5 -8 -2 -7 9
2 18 15 23 26 7 16 -5 -3 -10 -2 -10 4 0 5 5 13 11 17 8 4 7 9 -2 15 -12 8
-11 11 1 19 13 8 13 10 1 10 -12 0 -12 3 -3 12 16 16 15 31 0 22 -10 -5 -10
-3 0 7 11 12 14 12 22 -1 5 -8 10 -10 10 -4 0 14 63 14 72 0 5 -8 8 -7 8 2 0
8 8 10 26 6 19 -5 25 -3 20 4 -5 8 -2 10 8 6 9 -3 14 -10 11 -14 -3 -5 6 -3
20 3 14 7 25 17 25 23 0 7 17 11 45 10 29 -1 46 3 50 12 3 8 0 10 -7 6 -6 -4
-8 -3 -5 4 4 5 18 9 32 7 14 -1 25 2 25 7 0 5 5 6 12 2 20 -13 148 -10 148 3
0 6 5 15 12 19 7 5 8 3 3 -7 -8 -12 -6 -12 8 -1 9 8 21 11 26 8 5 -4 12 -2 16
3 3 6 15 7 28 2 21 -8 53 9 41 22 -3 3 6 4 20 3 14 -2 26 1 26 5 0 5 5 9 11 9
5 0 8 -3 6 -7 -10 -15 143 -5 158 10 8 8 12 17 10 19 -3 3 3 5 13 5 9 0 20 -5
24 -11 5 -7 8 -6 8 4 0 13 1 13 10 0 7 -11 10 -11 10 -2 0 7 5 10 12 6 7 -4 8
-3 4 4 -3 6 2 16 13 21 25 14 34 14 25 0 -4 -8 -1 -8 13 -1 12 7 24 7 37 0 13
-7 17 -7 12 0 -4 7 5 10 29 8 l35 -4 -17 29 c-18 29 -23 32 -81 31 -18 0 -30
4 -27 9 4 5 1 9 -5 9 -6 0 -9 3 -7 8 3 4 -15 17 -40 30 -25 13 -42 18 -38 13
3 -6 2 -11 -4 -11 -5 0 -13 5 -16 10 -4 6 -11 8 -16 4 -19 -11 -61 -15 -54 -4
3 5 -1 10 -10 10 -9 0 -13 5 -10 10 6 9 -8 14 -27 11 -5 0 -7 5 -5 12 3 19
-166 23 -182 3z m436 -922 c-3 -3 -2 -17 3 -30 5 -13 6 -24 2 -24 -4 0 -8 -13
-7 -30 0 -16 3 -30 7 -30 4 0 3 -11 -2 -25 -6 -16 -6 -25 1 -25 6 0 6 -7 -1
-20 -8 -14 -8 -20 0 -20 7 0 7 -7 -1 -21 -6 -12 -7 -24 -3 -28 11 -8 14 -41 5
-41 -4 0 -6 -19 -5 -43 3 -42 2 -43 -26 -41 -16 1 -34 5 -41 9 -7 5 -10 4 -6
-2 5 -7 -15 -10 -58 -7 -62 3 -67 2 -100 -30 -19 -18 -32 -36 -30 -38 3 -3 -2
-5 -10 -5 -8 0 -12 4 -9 9 8 13 -10 10 -25 -4 -11 -10 -13 -10 -7 0 5 8 1 12
-11 12 -15 0 -19 8 -18 38 0 20 4 43 9 51 6 10 6 12 -2 7 -8 -5 -10 -2 -6 8 4
10 18 16 36 16 16 0 27 4 23 9 -3 5 0 13 6 17 8 4 7 9 -2 15 -11 7 -11 9 1 9
13 0 13 1 0 10 -12 8 -13 13 -3 29 8 13 9 22 2 26 -7 5 -6 11 1 20 8 9 8 15 0
20 -5 3 -10 11 -10 16 0 6 5 7 10 4 6 -3 10 -1 10 6 0 6 8 9 18 7 23 -6 48 27
30 38 -8 5 -6 9 6 14 10 3 17 9 17 13 -1 4 4 14 11 21 10 10 15 11 20 2 6 -8
8 -8 8 0 0 8 11 9 35 4 19 -4 35 -4 35 0 0 11 33 7 42 -5 5 -6 8 -4 8 4 0 8 8
20 18 27 17 14 30 19 19 8z m-379 -943 c6 -1 12 -6 12 -12 0 -5 -5 -7 -12 -3
-7 5 -8 3 -4 -5 5 -7 14 -10 22 -7 8 3 14 -1 14 -9 0 -8 7 -15 16 -15 8 0 12
-5 8 -11 -4 -8 0 -8 15 0 21 12 27 5 21 -24 -1 -5 2 -7 6 -3 4 4 13 3 21 -3
10 -9 13 -8 13 0 0 7 5 9 10 6 6 -3 15 -3 21 1 8 5 8 9 -1 14 -8 5 -5 9 9 13
12 3 21 1 21 -5 0 -5 6 -6 13 -1 17 10 41 10 49 -1 9 -13 40 13 31 27 -3 6 -1
7 5 3 7 -4 12 -2 12 4 0 8 6 7 21 -1 17 -9 20 -8 14 2 -6 9 -3 11 9 6 10 -4
22 -7 28 -7 5 0 8 -6 5 -12 -2 -7 -1 -22 3 -33 9 -24 -14 -64 -25 -45 -4 7
-11 8 -18 2 -7 -5 -22 -8 -35 -7 -15 1 -21 -3 -20 -14 2 -9 -4 -16 -12 -16 -8
0 -15 -7 -14 -15 1 -12 -10 -15 -45 -14 -25 0 -52 -4 -60 -10 -11 -8 -13 -8
-8 0 4 7 0 15 -9 18 -9 3 -12 2 -8 -5 4 -7 -5 -9 -26 -6 -25 4 -30 2 -26 -9 3
-9 1 -12 -4 -9 -6 3 -10 2 -10 -3 0 -5 -20 -8 -45 -7 -26 2 -42 -1 -39 -7 3
-5 -3 -4 -15 4 -13 8 -19 19 -15 30 3 10 0 18 -7 18 -9 0 -8 4 1 15 10 12 10
15 0 15 -10 0 -10 3 0 15 9 10 9 15 1 15 -6 0 -11 5 -11 11 0 5 3 8 8 6 4 -3
8 6 8 19 1 13 -3 24 -10 24 -6 0 -4 5 4 10 12 8 12 10 1 10 -10 0 -11 3 -2 13
6 8 9 16 6 19 -3 2 5 4 18 2 12 -1 28 -3 35 -3z"/>
<path d="M1060 2319 c0 -5 5 -7 10 -4 6 3 10 8 10 11 0 2 -4 4 -10 4 -5 0 -10
-5 -10 -11z"/>
</g>
</svg>
