<svg width="1440" height="356" viewBox="0 0 1440 356" fill="none" xmlns="http://www.w3.org/2000/svg">
<path fill-rule="evenodd" clip-rule="evenodd" d="M807.655 0.122028L806.916 0.185227L806.802 1.20969C806.739 1.77328 806.687 3.01743 806.687 3.97466V5.71483H807.496H808.304V6.4712V7.22757H809.023H809.742V8.65628V10.085H809.023H808.304V13.2539C808.304 14.9969 808.253 16.8878 808.189 17.4559L808.074 18.4891H807.47H806.867V19.9178V21.3466H807.586H808.304V26.0282C808.304 28.6032 808.253 31.1749 808.189 31.743L808.074 32.7762H807.47H806.867L806.836 35.0033C806.818 36.2283 806.828 38.4406 806.857 39.9197C806.886 41.3989 806.85 43.9517 806.777 45.5925L806.644 48.576H805.947H805.25V52.8621V57.1483H805.969H806.687V57.8206V58.4929H805.969H805.25V59.1653V59.8376H805.969H806.687V60.5099V61.1822H805.969H805.25V72.6959V84.2096H804.532H803.813V87.6553V91.101H804.532H805.25V94.0425V96.9839H804.532H803.813L803.812 101.48C803.811 103.953 803.759 106.487 803.696 107.111L803.581 108.246H802.889H802.196V109.674V111.103H801.477H800.759V112.522V113.941L799.995 113.993L799.231 114.044L799.179 115.422L799.127 116.799L798.371 116.85C797.638 116.9 797.613 116.921 797.559 117.532C797.505 118.145 797.483 118.162 796.795 118.162H796.087V119.591V121.02H795.369H794.65V122.533V124.045H795.369H796.087V130.432V136.82H795.369H794.65V137.492V138.164H793.842H793.033V138.921V139.677H792.314H791.596V140.349V141.022H790.787H789.979V141.778V142.534H788.56H787.142L787.015 143.868C786.946 144.602 786.946 145.289 787.017 145.395C787.086 145.501 787.085 146.792 787.014 148.263L786.884 150.939H786.185H785.487V153.124V155.309H786.206H786.925V159.602V163.895L785.442 163.846L783.96 163.797L783.952 161.696C783.948 160.54 783.927 158.933 783.907 158.124L783.87 156.653H783.152H782.433V155.981V155.309H781.714H780.996V155.981V156.653H780.208H779.421L779.294 158.082L779.167 159.511H778.554C777.948 159.511 777.941 159.519 777.941 160.267V161.024H778.66H779.379V163.125V165.226H778.686H777.993L777.879 166.36C777.816 166.984 777.764 168.611 777.763 169.974L777.762 172.453H777.043H776.324V173.798V175.143H777.015H777.706L777.823 177.286C777.887 178.464 777.94 184.894 777.941 191.573L777.941 203.717H777.133H776.324V205.145V206.574H774.797H773.27V207.246V207.919H772.551H771.833V208.675V209.432H770.216H768.599V210.104V210.776H767.88H767.162V215.059V219.343L762.625 219.388L758.089 219.432L758.033 220.147C757.978 220.858 757.975 220.861 757.27 220.861H756.561V222.962V225.063H755.87H755.18L755.063 227.206C754.999 228.385 754.946 229.973 754.945 230.736L754.944 232.123H754.226H753.507V234.98V237.838H754.226H754.944V240.695V243.552H754.226H753.507V246.41V249.267H745.153H736.799V248.595V247.923H737.517H738.236V244.309V240.695H737.427H736.619V240.023C736.619 239.368 736.602 239.35 736.001 239.35C735.661 239.35 735.331 239.272 735.267 239.176C735.204 239.08 735.209 238.437 735.278 237.747L735.403 236.493H735.986H736.568L736.663 234.613C736.716 233.579 736.716 232.293 736.664 231.756L736.569 230.778H735.875H735.182V230.022V229.265H734.463H733.744V227.525C733.744 226.568 733.693 225.324 733.63 224.761L733.515 223.736L732.866 223.685C732.241 223.636 732.215 223.608 732.162 222.92C732.107 222.209 732.103 222.206 731.398 222.206H730.69V220.114V218.023L729.926 217.971C729.189 217.921 729.161 217.899 729.108 217.304L729.053 216.688L727.536 216.57L726.019 216.451V215.821V215.19L724.592 215.073L723.164 214.957L723.109 214.337C723.056 213.738 723.029 213.716 722.291 213.666L721.527 213.614V209.338V205.061H720.809H720.09V204.389V203.717H719.281H718.473V200.859V198.002H716.946H715.419V200.859V203.717H714.725H714.032L713.917 204.75C713.854 205.318 713.802 206.604 713.802 207.607V209.432H713.189H712.576L712.449 210.86L712.322 212.289H711.643H710.964L710.839 213.611L710.714 214.934L709.626 215.04C709.028 215.098 708.025 215.146 707.397 215.146H706.256V215.801V216.456L704.829 216.574L703.403 216.692L703.279 218.02L703.155 219.348H702.47C701.792 219.348 701.784 219.356 701.73 220.063C701.676 220.753 701.652 220.779 701.016 220.828L700.357 220.88L700.231 222.299L700.105 223.719H699.407H698.71V226.492V229.265H698.01H697.311L697.178 230.82C697.105 231.675 697.076 234.266 697.114 236.577L697.183 240.779L696.419 240.831L695.656 240.882L695.644 241.587C695.637 241.975 695.642 246.736 695.655 252.167L695.678 262.042H688.865H682.052L681.937 263.075C681.874 263.643 681.822 264.578 681.822 265.152V266.196L680.717 266.304C680.11 266.363 677.725 266.412 675.417 266.412H671.221V269.185V271.958H653.794H636.367V271.395V270.83L635.154 270.723C634.487 270.664 628.302 270.616 621.41 270.615L608.878 270.614V269.962V269.31L604.297 269.187L599.716 269.063V268.518C599.716 267.974 599.713 267.972 598.611 267.864C598.004 267.805 595.942 267.756 594.03 267.756H590.553V267.103V266.45L587.498 266.328L584.444 266.205V265.552V264.899H581.39H578.336V264.227V263.554H575.371H572.407V262.906V262.258L571.302 262.149C570.695 262.09 569.644 262.042 568.967 262.042H567.736V261.369V260.697H565.786C564.713 260.697 563.339 260.648 562.731 260.589L561.627 260.481V259.833V259.184H559.381H557.135V258.517V257.85L554.845 257.803L552.554 257.755L552.5 257.148L552.445 256.541L551.35 256.434C550.748 256.375 549.742 256.327 549.114 256.327H547.973V255.654V254.982H545.727H543.481V254.328V253.673L541.864 253.553L540.247 253.434V252.779C540.247 252.128 540.244 252.125 539.528 252.125H538.81V249.94V247.754H538.11H537.41L537.285 246.432L537.16 245.11L536.072 245.003C535.474 244.945 524.89 244.897 512.553 244.897H490.121V244.309V243.72H487.785H485.45V244.309C485.45 244.883 485.433 244.897 484.731 244.897C484.03 244.897 484.012 244.883 484.012 244.309C484.012 243.734 483.995 243.72 483.294 243.72C482.592 243.72 482.575 243.734 482.575 244.309V244.897L479.925 244.898C478.468 244.899 476.729 244.948 476.062 245.007L474.85 245.114V245.762C474.85 246.406 474.845 246.41 474.131 246.41H473.412V252.125V257.839H472.602H471.793L471.839 247.881L471.885 237.922L472.541 237.871L473.197 237.819L473.323 236.484L473.45 235.148H474.15H474.85V230.778V226.408H474.131H473.412V225.736V225.063H472.604H471.795V224.391V223.719H471.077H470.358V222.962V222.206H469.647H468.935L468.883 220.819L468.831 219.432L468.067 219.381C467.31 219.329 467.304 219.324 467.304 218.676C467.304 218.028 467.298 218.023 466.54 217.971C465.78 217.92 465.777 217.916 465.722 217.205C465.666 216.495 465.663 216.491 464.958 216.491C464.251 216.491 464.25 216.489 464.25 215.819V215.146H463.441H462.633V214.474V213.802H461.914H461.195V213.045V212.289H460.503H459.81L459.695 211.154C459.632 210.53 459.58 209.254 459.58 208.318L459.578 206.617L458.635 206.53C458.116 206.482 456.782 206.483 455.671 206.533L453.649 206.624V210.129V213.634H452.841H452.032V214.39V215.146H451.314H450.595V215.819V216.491H449.787H448.978V217.146V217.801L447.541 217.92L446.104 218.039V218.694V219.348H445.295H444.487L444.485 220.567C444.484 221.237 444.433 222.179 444.371 222.659C444.261 223.519 444.249 223.534 443.609 223.584C442.983 223.633 442.958 223.661 442.904 224.349L442.849 225.063H441.332H439.815V225.82V226.576H439.097H438.378V229.349V232.123H439.097H439.815V233.947C439.815 234.95 439.867 236.236 439.931 236.804L440.046 237.838H440.739H441.432V238.594V239.35H442.151H442.87V247.166V254.982H442.174H441.479L441.354 256.317L441.23 257.652L440.567 257.704C439.914 257.755 439.904 257.766 439.85 258.554L439.796 259.352H440.524C441.235 259.352 441.253 259.367 441.253 259.93C441.253 260.477 441.216 260.511 440.579 260.561C439.925 260.611 439.904 260.634 439.85 261.327C439.796 262.026 439.78 262.042 439.131 262.059C435.687 262.15 431.746 262.164 430.608 262.089L429.215 261.998V261.348C429.215 260.701 429.219 260.697 429.934 260.697H430.653V259.941V259.184H429.934H429.215V256.411V253.637H430.742H432.27V252.125V250.612H430.742H429.215V249.94V249.267H428.407H427.598V239.36V229.454L426.925 229.402L426.251 229.349L426.203 224.349L426.156 219.348H426.877H427.598V217.247V215.146H426.969C426.429 215.146 426.341 215.091 426.341 214.751C426.341 214.533 426.289 213.89 426.225 213.322L426.11 212.289H426.833H427.556L427.683 210.86L427.81 209.432H428.513H429.215V208.012V206.593L429.979 206.542L430.742 206.49L430.794 205.103L430.847 203.717H429.312H427.778V203.064V202.412L426.255 202.293L424.732 202.174L424.683 199.374L424.634 196.573L423.87 196.522C423.11 196.47 423.107 196.467 423.107 195.807V195.144H420.052H416.998V194.472V193.8H416.279H415.561V190.186V186.572H416.279H416.998V184.471V182.37H416.279H415.561V178.084V173.798H414.868H414.175L414.061 172.663C413.998 172.039 413.946 170.754 413.945 169.806L413.944 168.083H413.225H412.507V165.982V163.881H411.698H410.89V162.452V161.024H410.171H409.452V160.267V159.511H408.752H408.052L407.925 158.166L407.798 156.822H407.098H406.398V156.075V155.328L405.634 155.276C404.875 155.225 404.871 155.221 404.816 154.51C404.761 153.8 404.757 153.796 404.052 153.796C403.346 153.796 403.344 153.794 403.344 153.124V152.451H402.535H401.727V151.779V151.107H401.008H400.289V150.35V149.594H398.762H397.235V148.928V148.263L395.753 148.214L394.271 148.165L394.216 147.451L394.16 146.737H392.744H391.327L391.272 146.022C391.217 145.311 391.213 145.308 390.453 145.256C389.693 145.205 389.689 145.201 389.689 144.542V143.879H388.881H388.072V142.534V141.19H387.373H386.673L386.545 139.677L386.417 138.164H385.808H385.198V136.83V135.495L385.872 135.443C386.525 135.392 386.547 135.37 386.6 134.677C386.656 133.966 386.659 133.962 387.364 133.962H388.072V129.004V124.045H387.354H386.635V123.289V122.533H385.108H383.581V121.104V119.675H382.888H382.195L382.079 118.642C382.016 118.074 381.964 117.139 381.964 116.565V115.521L380.906 115.418C380.324 115.361 379.314 115.361 378.66 115.418L377.472 115.522V117.599V119.675H376.754H376.035V120.348V121.02H375.226H374.418V121.776V122.533H373.722H373.027L372.903 123.868L372.778 125.203L372.116 125.254L371.454 125.306L371.406 129.634L371.358 133.962H372.888H374.418V137.492V141.022H373.699C372.982 141.022 372.981 141.023 372.981 141.684C372.981 142.344 372.977 142.347 372.217 142.399C371.457 142.45 371.453 142.454 371.398 143.165C371.343 143.874 371.338 143.879 370.645 143.879C369.952 143.879 369.947 143.885 369.892 144.593C369.837 145.304 369.833 145.308 369.073 145.359C368.313 145.411 368.309 145.414 368.309 146.074V146.737H366.882H365.455L365.4 147.451L365.345 148.165L363.773 148.214L362.201 148.262V148.928V149.594H361.392H360.584V150.249V150.904L359.164 151.021L357.744 151.139L357.619 152.458L357.494 153.778L356.838 153.829C356.205 153.878 356.18 153.905 356.127 154.594C356.072 155.305 356.068 155.309 355.363 155.309H354.655V156.065V156.822H353.847H353.038V157.494V158.166H352.319H351.601V158.839C351.601 159.509 351.599 159.511 350.892 159.511C350.188 159.511 350.184 159.514 350.129 160.225C350.074 160.936 350.07 160.94 349.31 160.991L348.546 161.043V162.462V163.881H347.828H347.109V164.949C347.109 165.536 347.057 166.482 346.994 167.05L346.878 168.083H346.185H345.492V171.697V175.311H344.774H344.055V177.051C344.055 178.008 344.003 179.256 343.94 179.824L343.824 180.857H343.131H342.438V182.37V183.883H341.719C341.018 183.883 341.001 183.897 341.001 184.471C341.001 185.044 341.019 185.059 341.709 185.059H342.418L342.473 185.858C342.527 186.643 342.539 186.657 343.177 186.707L343.826 186.758L343.94 187.782C344.088 189.104 344.088 192.783 343.94 194.106L343.825 195.135L341.649 195.181L339.473 195.229L339.419 195.845L339.364 196.461L337.847 196.579L336.329 196.697V198.778V200.859H335.611H334.892V202.288V203.717H331.838H328.784V205.145V206.574H330.195H331.607L331.722 207.607C331.786 208.175 331.838 209.461 331.838 210.465V212.289H332.556H333.275V213.718V215.146H332.556H331.838V215.819V216.491H332.556H333.275V232.879V249.267H332.467H331.658V249.933V250.598L330.176 250.647L328.694 250.696L328.639 251.41C328.585 252.102 328.564 252.125 327.965 252.125C327.366 252.125 327.346 252.145 327.346 252.78V253.434L328.777 253.553L330.207 253.671L330.259 255.041L330.311 256.411L330.984 256.463L331.658 256.515V257.934V259.352H331.048H330.438L330.311 260.697L330.183 262.042H328.765H327.346V261.369V260.697H326.538H325.729V259.268V257.839H325.038H324.347L324.231 255.696C324.081 252.955 324.081 247.941 324.231 239.966L324.35 233.636H325.04H325.729V232.207V230.778H326.448H327.167V229.349V227.921H326.448H325.729V226.492V225.063H324.202H322.675V223.635V222.206H321.973H321.27L321.143 220.777L321.015 219.348H320.318C319.626 219.348 319.621 219.343 319.621 218.686C319.621 218.026 319.617 218.023 318.857 217.971C318.116 217.921 318.092 217.901 318.038 217.289C317.984 216.677 317.962 216.659 317.274 216.659H316.566V215.908V215.156L314.276 215.109L311.985 215.062L311.935 212.919L311.884 210.776H311.287H310.689L310.573 209.743C310.51 209.175 310.458 207.938 310.458 206.994V205.277L309.354 205.169C307.359 204.974 307.404 204.959 307.404 205.818V206.574H306.685H305.966V210.104V213.634H305.158H304.349V214.39V215.146H302.912H301.475V215.819V216.491H300.687H299.9L299.773 217.92L299.646 219.348H298.943C298.244 219.348 298.241 219.351 298.241 220.021V220.693H297.522H296.804V222.206V223.719H296.085H295.366V224.391V225.063H294.558H293.749V225.736V226.408H291.503H289.258V225.736V225.063H290.785H292.312V223.635V222.206H289.976H287.641V221.534V220.861H289.168H290.695V219.456V218.052L289.591 217.944C288.983 217.884 287.973 217.836 287.345 217.836H286.203V217.265V216.694L287.617 216.577L289.03 216.46L289.144 215.442C289.367 213.448 289.595 213.634 286.922 213.634H284.586V212.877V212.121H283.868H283.149V211.449V210.776H281.632H280.115L280.06 211.491C280.005 212.201 280.001 212.205 279.241 212.257C278.482 212.308 278.478 212.311 278.478 212.971V213.634H277.059H275.641L275.515 212.311L275.39 210.987L274.277 210.881C273.664 210.822 272.661 210.823 272.048 210.883L270.932 210.992V211.64V212.289H270.124H269.315V212.961V213.634H268.596H267.878V214.39V215.146H267.159C266.445 215.146 266.44 215.15 266.44 215.795V216.443L267.545 216.551C268.152 216.611 269.163 216.659 269.791 216.659H270.932V217.247V217.836H269.405H267.878V219.348V220.861H270.124H272.369V221.534V222.206H270.842H269.315V223.635V225.063H271.561H273.807V225.736V226.408H272.38C271.595 226.408 270.903 226.485 270.841 226.578C270.779 226.672 270.784 227.353 270.853 228.091L270.978 229.433H273.201H275.424V229.998V230.562L274.319 230.67C273.712 230.73 272.701 230.778 272.073 230.778H270.932V232.207V233.636H273.178H275.424V234.308V234.98H274.005H272.586L272.46 236.314C272.391 237.048 272.387 237.729 272.452 237.827C272.517 237.925 272.843 238.006 273.178 238.006C273.75 238.006 273.788 238.042 273.841 238.636L273.896 239.266L275.379 239.315L276.861 239.364V240.023V240.681L275.379 240.73L273.896 240.779L273.957 242.124C273.99 242.863 274.037 243.487 274.061 243.51C274.086 243.533 275.082 243.601 276.276 243.661L278.445 243.771L278.57 245.09L278.695 246.41H279.305H279.915V251.368V256.327H279.197H278.478V257.083V257.839H277.782H277.087L276.964 259.161L276.84 260.483L275.746 260.59C275.145 260.649 270.743 260.697 265.965 260.697H257.278V259.941V259.184H256.469H255.661V258.519V257.853L254.178 257.804L252.696 257.755L252.64 257.125L252.585 256.495H247.296H242.006V257.083V257.671L240.883 257.673C240.266 257.673 239.215 257.722 238.548 257.781L237.335 257.888V258.536C237.335 259.18 237.331 259.184 236.616 259.184H235.898V259.941V260.697H233.534H231.171L231.285 262.795L231.398 264.894L226.057 264.938L220.716 264.983L220.66 265.613L220.605 266.244H218.37H216.135V265.571V264.899H214.608H213.08V264.227V263.554H211.553H210.026V264.203V264.852L206.149 264.936C204.016 264.982 200.944 264.982 199.322 264.936L196.372 264.852V264.203V263.554H194.845H193.318V264.227V264.899H192.086C191.409 264.899 190.358 264.948 189.751 265.007L188.646 265.115V265.679V266.244H186.401H184.155V265.571V264.899H183.346H182.538V264.227V263.554H181.011H179.483V264.227V264.899H175.711H171.938V265.551V266.204L170.41 266.323L168.883 266.442V267.772V269.101H166.638H164.392V264.899V260.697H163.583H162.775V260.048V259.4L161.67 259.292C160.241 259.152 145.81 259.154 144.225 259.294L143.012 259.401V260.049V260.697H142.203H141.395V261.359C141.395 262.003 141.376 262.023 140.721 262.073L140.047 262.126L140 268.471L139.953 274.816H131.601H123.249V250.696V226.576H123.968H124.686V224.391V222.206H123.968H123.249V221.534V220.861H123.968H124.686V220.105V219.348H127.73H130.774L130.829 218.634C130.883 217.941 130.904 217.918 131.558 217.868L132.232 217.815V216.481V215.146H131.513C130.699 215.146 130.705 215.163 130.91 213.322L131.026 212.289H131.719H132.412V211.533V210.776H133.13H133.849V210.104C133.849 209.433 133.847 209.432 133.141 209.432C132.436 209.432 132.432 209.428 132.377 208.717L132.322 208.003L130.885 207.998C130.094 207.996 129.063 207.977 128.594 207.956L127.74 207.919V207.246V206.574H128.549H129.357V205.902V205.229H131.603H133.849V204.473V203.717H134.568C135.282 203.717 135.286 203.713 135.286 203.068V202.42L134.182 202.312C133.575 202.253 132.605 202.204 132.026 202.204H130.974V201.532V200.859H132.412H133.849V200.187V199.515H134.658H135.466V198.758V198.002H136.185H136.903V197.33V196.657H136.185C135.55 196.657 135.466 196.611 135.466 196.262C135.466 196.044 135.415 195.406 135.352 194.843L135.237 193.82L136.115 193.768L136.993 193.716L137.048 193.001C137.103 192.291 137.107 192.287 137.812 192.287H138.52V190.858V189.43H137.712H136.903V188.757C136.903 188.087 136.905 188.085 137.612 188.085C138.317 188.085 138.32 188.081 138.375 187.371C138.43 186.66 138.434 186.656 139.194 186.605L139.958 186.553V185.134V183.715H139.239H138.52V183.042V182.37H137.702H136.883L136.938 181.656L136.993 180.941L139.194 180.894L141.395 180.847V179.532V178.216L140.291 178.108C139.683 178.049 138.725 178 138.16 178H137.134L137.019 176.967C136.955 176.399 136.903 175.453 136.903 174.866V173.798H136.095H135.286V173.126V172.453H133.13H130.974V173.126V173.798H130.176H129.378L129.323 174.512C129.268 175.223 129.264 175.227 128.504 175.278C127.744 175.33 127.74 175.333 127.74 175.993V176.655H126.313H124.887L124.831 175.941C124.776 175.23 124.772 175.226 124.012 175.175C123.253 175.123 123.249 175.12 123.249 174.461V173.798H120.195H117.14V174.47V175.143H116.422H115.703V175.899V176.655H113.367H111.032V177.328V178H110.313H109.595V180.185V182.37H108.892H108.19L108.066 183.759C107.998 184.523 107.97 185.79 108.005 186.574L108.067 188.001L107.304 188.053C106.546 188.104 106.54 188.109 106.54 188.757C106.54 189.405 106.534 189.411 105.777 189.462L105.013 189.514L105.045 191.504C105.062 192.599 105.112 193.528 105.155 193.568C105.198 193.609 106.174 193.689 107.324 193.746L109.415 193.851V194.498V195.144H107.169H104.923V195.817V196.489H104.205H103.486V198.002V199.515H104.205H104.923V200.187V200.859H106.45H107.978V201.532V202.204L106.136 202.205C105.123 202.206 103.746 202.255 103.075 202.314L101.855 202.422L101.907 203.784L101.959 205.145L103.441 205.194L104.923 205.243V206.557V207.871L103.819 207.979C103.212 208.038 102.201 208.087 101.573 208.087H100.432V208.759V209.432H99.616H98.8002L98.8525 210.818L98.9046 212.205L100.363 212.253L101.821 212.302L101.942 213.56C102.01 214.252 102.016 214.892 101.956 214.982C101.895 215.075 100.872 215.146 99.6126 215.146H97.3774V217.247V219.348H99.6126C100.842 219.348 101.887 219.408 101.935 219.481C101.983 219.554 101.976 220.499 101.919 221.582L101.816 223.551H101.124H100.432V224.307V225.063H101.15H101.869V226.492V227.921H101.15H100.432V231.45V234.98H101.15H101.869V255.654V276.329H99.6232H97.3774V277.001V277.673L89.7867 277.674C85.6116 277.674 81.165 277.724 79.9052 277.784L77.6145 277.893V278.54V279.186H72.2246H66.8347V279.852V280.517L65.3525 280.566L63.8702 280.615L63.814 283.388C63.7831 284.913 63.8108 286.861 63.8756 287.716L63.9937 289.271H64.6954C65.3945 289.271 65.3974 289.274 65.3974 289.943V290.616H64.5889H63.7804V291.288V291.96H63.0618H62.3431V293.389V294.818H61.6245H60.9058V295.49V296.162H59.3787H57.8515V295.599V295.034L56.6388 294.927C55.9719 294.868 53.5464 294.82 51.2489 294.819L47.0717 294.818V294.061V293.305H46.3531H45.6344V266.328V239.35H46.3531H47.0717V238.594V237.838H47.8802H48.6887V237.165V236.493H50.2158H51.743V235.064V233.636H52.4616H53.1803V232.879V232.123H53.9888H54.7973V230.022V227.921H55.5159H56.2346V226.492V225.063H55.5407H54.8468L54.7243 223.799C54.6569 223.103 54.6505 222.46 54.7101 222.37C54.7698 222.28 55.4604 222.206 56.2452 222.206H57.6719V221.138C57.6719 220.551 57.7238 219.605 57.7872 219.037L57.9027 218.004H58.5957H59.2888V216.936C59.2888 216.348 59.3408 215.403 59.4042 214.835L59.5197 213.802H60.1228H60.7261V212.289V210.776H60.0075H59.2888V210.104V209.432H60.816H62.3431V208.675V207.919H61.65H60.957L60.8415 206.886C60.7781 206.317 60.7261 205.372 60.7261 204.785V203.717H59.199H57.6719V203.044V202.372H55.4261H53.1803V203.044V203.717H51.7592H50.338L50.2106 205.145L50.0834 206.574H49.3862H48.6887V208.003V209.432H47.9956H47.3026L47.1871 210.465C47.1237 211.033 47.0717 211.978 47.0717 212.566V213.634H46.3601H45.6485L45.5965 215.104L45.5446 216.575L44.8896 216.626L44.2345 216.677L44.1042 219.442L43.9738 222.206H43.2771H42.5802V225.063V227.921H41.8876H41.1948L41.0803 229.055C41.0173 229.679 40.9652 230.625 40.9645 231.156L40.9632 232.123H40.2445H39.5259V233.636V235.148H38.8263H38.1269L37.9961 237.922L37.8653 240.695H37.1685H36.4716V252.797V264.899H35.753H35.0343V265.655V266.412H35.753H36.4716V281.371V296.331H34.9445H33.4173V297.003C33.4173 297.671 33.413 297.675 32.7242 297.675H32.0312L31.9157 298.708C31.8523 299.276 31.8004 300.222 31.8004 300.809V301.877H31.1716C30.5461 301.877 30.5427 301.881 30.5427 302.634C30.5427 303.386 30.5461 303.39 31.1716 303.39H31.8004V304.819V306.247H30.3631H28.9258V305.575V304.903H27.3986H25.8715V305.575V306.247H23.5359H21.2003V304.819V303.39H20.4816H19.7629V302.718V302.045H18.9545H18.146V302.718V303.39H16.6188H15.0917V304.146V304.903H14.3731H13.6544V303.474V302.045H12.1273H10.6001V303.474V304.903H9.88147H9.16282V305.575V306.247H9.88147H10.6001V307.676V309.105H9.90627H9.21241L9.08988 310.369C9.0225 311.065 9.01604 311.708 9.07568 311.798C9.13533 311.888 9.82596 311.962 10.6107 311.962H12.0374V312.617V313.272L10.6001 313.391L9.16282 313.51V316.35V319.19H9.88147H10.6001V321.291V323.392H9.88147C9.16462 323.392 9.16282 323.394 9.16282 324.054C9.16282 324.698 9.1815 324.718 9.83656 324.768C10.4905 324.819 10.5119 324.842 10.5654 325.535C10.6206 326.246 10.6242 326.249 11.329 326.249C12.0356 326.249 12.0374 326.251 12.0374 326.922V327.594L10.1959 327.595C9.18294 327.596 7.80852 327.645 7.14161 327.704L5.92888 327.811V328.375V328.939H2.96444H0V341.78V354.62L1.43731 354.739L2.87461 354.858V355.429V356H719.91H1436.95V355.412V354.823H1438.47H1440V341.209V327.594H1433.17H1426.35V326.941V326.289L1424.82 326.17L1423.29 326.051V323.293V320.534H1424.01H1424.73V319.106V317.677L1423.97 317.647C1423.55 317.631 1421.87 317.612 1420.24 317.605L1417.27 317.593L1417.22 314.778L1417.17 311.962H1416.46H1415.75V310.534V309.105H1417.99H1420.24V308.442C1420.24 307.783 1420.23 307.779 1419.47 307.728L1418.71 307.676L1418.66 306.299L1418.61 304.922L1417.94 304.87L1417.27 304.819L1417.22 303.432L1417.17 302.045H1416.48H1415.79L1415.66 300.617L1415.53 299.188H1414.83H1414.13V294.229V289.271H1413.41H1412.69V288.515V287.758H1411.88H1411.07V284.229V280.699H1410.36H1409.64V283.448V286.198L1408.53 286.306C1407.93 286.365 1405.55 286.414 1403.24 286.414H1399.06L1399 287.044L1398.95 287.674L1392.16 287.718L1385.38 287.762V288.433V289.103H1381.52H1377.66V287.758V286.414H1378.38H1379.09V285.677V284.941L1380.62 284.822L1382.15 284.703V284.149V283.595L1379.09 283.472L1376.04 283.35V282.696V282.043H1372.27H1368.49V281.375V280.707L1365.48 280.661L1362.48 280.615L1362.42 279.9C1362.37 279.19 1362.36 279.186 1361.66 279.186H1360.95V278.43V277.673H1360.25H1359.56L1359.45 276.791C1359.39 276.305 1359.33 275.663 1359.33 275.362C1359.33 274.837 1359.3 274.816 1358.61 274.816C1357.92 274.816 1357.89 274.837 1357.89 275.362C1357.89 275.663 1357.84 276.305 1357.78 276.791L1357.66 277.673H1356.97H1356.28V278.43V279.186H1355.58H1354.88L1354.76 280.615L1354.63 282.043H1352.5H1350.38L1350.25 283.472L1350.13 284.901H1349.43C1348.74 284.901 1348.73 284.906 1348.73 285.564C1348.73 286.223 1348.73 286.226 1347.97 286.278C1347.23 286.328 1347.2 286.35 1347.15 286.946L1347.09 287.562L1345.58 287.68L1344.06 287.798V288.45C1344.06 289.1 1344.06 289.103 1343.34 289.103H1342.62V290.616V292.128H1341.9H1341.19V292.801V293.473H1340.47H1339.75V294.145V294.818H1337.41H1335.08V293.389V291.96H1334.36C1333.64 291.96 1333.64 291.956 1333.64 291.314V290.668L1331.19 290.558C1329.84 290.497 1327.41 290.448 1325.8 290.448H1322.86V289.859C1322.86 289.288 1322.84 289.271 1322.16 289.271H1321.46L1321.4 285.081C1321.36 282.777 1321.28 280.845 1321.22 280.788C1321.16 280.731 1320.13 280.638 1318.93 280.582L1316.75 280.479V276.975V273.471H1315.22H1313.7V272.799V272.127H1311.03C1309.56 272.127 1307.86 272.078 1307.26 272.019L1306.15 271.911V263.446V254.982H1309.21H1312.26V255.631V256.279L1313.36 256.387C1313.97 256.446 1314.98 256.495 1315.61 256.495H1316.75V255.09V253.685L1315.65 253.577C1315.04 253.518 1313.34 253.469 1311.87 253.469H1309.21V252.797V252.125H1307.68H1306.15V251.462C1306.15 250.803 1306.15 250.799 1306.91 250.748C1307.65 250.698 1307.68 250.676 1307.73 250.075C1307.79 249.492 1307.83 249.451 1308.45 249.403L1309.12 249.351L1309.17 247.166C1309.2 245.964 1309.18 244.364 1309.11 243.611L1309 242.24L1307.58 242.123L1306.17 242.006L1306.11 240.636L1306.06 239.266L1305.3 239.215L1304.53 239.163V225.736V212.308L1305.3 212.257C1306.06 212.205 1306.06 212.203 1306.06 211.533C1306.06 210.862 1306.06 210.86 1305.3 210.809C1304.54 210.757 1304.53 210.754 1304.53 210.094C1304.53 209.433 1304.53 209.432 1303.82 209.432H1303.1L1303.1 200.397C1303.09 195.428 1303.04 190.966 1302.98 190.48C1302.87 189.622 1302.85 189.598 1302.29 189.598H1301.72L1301.6 204.501C1301.53 212.698 1301.48 224.535 1301.48 230.806V242.208H1300.07H1298.66L1298.54 243.241C1298.48 243.809 1298.43 245.397 1298.43 246.771V249.267H1297.71H1296.99V248.595V247.923H1292.88C1290.63 247.923 1287.19 247.873 1285.25 247.812L1281.72 247.701V247.056V246.41H1280.19H1278.66V247.839V249.267H1282.44H1286.21V249.94V250.612H1287.02H1287.83V251.368V252.125H1288.54H1289.26V252.797V253.469H1288.54H1287.83V257.755V262.042H1288.54H1289.26V272.715V283.388H1288.54H1287.83V282.043V280.699H1287.11H1286.39V279.942V279.186H1284.05H1281.72V269.185V259.184H1281H1280.28V258.512V257.839H1279.47H1278.66V257.167V256.495H1275.71H1272.76L1272.7 257.125C1272.65 257.737 1272.62 257.757 1271.88 257.807L1271.12 257.859V271.019C1271.12 278.257 1271.06 284.644 1271 285.212L1270.89 286.246H1270.28C1269.7 286.246 1269.68 286.224 1269.68 285.573V284.901H1268.87H1268.06V284.144V283.388H1267.34H1266.63V274.144V264.899H1265.82H1265.01V264.227V263.554H1261.95H1258.9V264.227V264.899H1258.09H1257.28V272.042V279.186H1256.68H1256.08L1255.96 280.219C1255.9 280.787 1255.85 281.771 1255.85 282.404V283.556H1256.56H1257.28V286.437V289.319L1256.18 289.211C1255.57 289.152 1254.92 289.103 1254.74 289.103C1254.47 289.103 1254.41 288.973 1254.41 288.431V287.758H1252.89H1251.37L1251.32 288.473C1251.26 289.183 1251.26 289.187 1250.5 289.239L1249.74 289.29V293.483V297.675H1249.02H1248.3V298.432V299.188H1247.49H1246.68V299.968V300.749L1245.58 300.64C1244.97 300.581 1244.33 300.533 1244.16 300.533C1243.9 300.533 1243.82 300.311 1243.72 299.188L1243.59 297.843H1242.89H1242.19V289.271V280.699H1244.44H1246.68V281.371V282.043H1249.74H1252.79V281.287V280.531H1250.55H1248.3V279.858V279.186H1245.25H1242.19V278.43V277.673H1242.91H1243.63V274.9V272.127H1242.91H1242.19V270.698V269.269H1241.38H1240.57V260.697V252.125H1241.38H1242.19V251.477V250.829L1240.98 250.721C1240.31 250.662 1239.31 250.614 1238.76 250.613L1237.75 250.612L1237.62 251.915C1237.55 252.631 1237.51 257.113 1237.52 261.873C1237.53 266.634 1237.54 270.889 1237.53 271.328L1237.52 272.127H1236.8H1236.08V273.867C1236.08 274.824 1236.03 276.072 1235.97 276.64L1235.85 277.673H1235.26C1234.7 277.673 1234.66 277.633 1234.61 277.043L1234.56 276.413L1230.74 276.367L1226.92 276.322V275.668V275.014L1225.44 274.901C1224.62 274.839 1223.59 274.813 1223.15 274.844L1222.34 274.9L1222.28 275.605L1222.23 276.309L1223.09 276.361C1223.94 276.412 1223.96 276.422 1224.01 277.017L1224.06 277.622L1226.34 277.731C1227.6 277.791 1229.29 277.84 1230.11 277.841L1231.59 277.841V278.514V279.186H1234.53H1237.47L1237.58 280.321C1237.73 281.803 1237.73 293.793 1237.58 295.129L1237.47 296.162H1236.78C1236.09 296.162 1236.08 296.158 1236.08 295.49V294.818H1234.56H1233.03V295.49C1233.03 296.084 1232.98 296.162 1232.61 296.162C1232.37 296.162 1231.69 296.211 1231.08 296.27L1229.97 296.378V295.598V294.818H1229.26H1228.54V293.75C1228.54 293.162 1228.48 292.217 1228.42 291.649L1228.31 290.616H1225.75C1224.35 290.616 1222.7 290.567 1222.1 290.508L1220.99 290.4L1220.99 289.457C1220.99 288.939 1220.94 288.004 1220.87 287.38L1220.76 286.246H1220.07C1219.38 286.246 1219.37 286.241 1219.37 285.573V284.901H1217.87H1216.37L1216.24 267.294C1216.1 247.315 1216.11 205.334 1216.26 166.108L1216.37 139.509H1217.06C1217.75 139.509 1217.76 139.505 1217.76 138.837V138.164H1218.57H1219.37V137.408V136.652H1220.09H1220.81V133.888V131.124L1220.05 131.072C1219.31 131.022 1219.28 131.002 1219.23 130.39L1219.17 129.76L1216.98 129.745C1215.78 129.736 1214.45 129.742 1214.03 129.757L1213.27 129.786V125.403V121.02H1213.98H1214.7V120.348V119.675H1213.98H1213.27V118.246V116.818H1212.55H1211.83V115.389V113.96H1212.55H1213.27V111.464C1213.27 110.091 1213.21 108.502 1213.15 107.934L1213.03 106.901H1212.43C1211.85 106.901 1211.83 106.878 1211.83 106.239C1211.83 105.595 1211.85 105.575 1212.5 105.524L1213.18 105.472L1213.22 99.043L1213.27 92.6138H1212.55C1211.83 92.6138 1211.83 92.6111 1211.83 91.9593V91.3048L1210.21 91.1847L1208.59 91.0649L1208.64 87.5952L1208.68 84.1256L1210.17 84.0769L1211.65 84.0279V82.6061V81.1841H1210.93H1210.21V80.5118V79.8395H1209.4H1208.59V79.0831V78.3267H1207.88H1207.16V76.9821V75.6374H1206.44H1205.72V76.3097V76.9821H1204.91H1204.1V78.4108V79.8395H1203.39C1202.69 79.8395 1202.69 79.843 1202.63 80.5538C1202.58 81.2646 1202.57 81.2683 1201.81 81.3198C1201.05 81.3714 1201.05 81.3747 1201.05 82.0341V82.6969H1202.58H1204.1V86.2266V89.7564H1203.29H1202.49V90.4287V91.101H1201.77H1201.05V89V86.899H1200.33H1199.61V92.6138V98.3286H1200.33H1201.05V100.514V102.699H1200.33H1199.61V103.371V104.043H1200.33H1201.05V109.674V115.305H1200.33H1199.61V116.061V116.818H1198.8H1197.99V117.574V118.331H1197.28H1196.56V123.937V129.543L1195.34 129.651C1194.68 129.71 1193.67 129.758 1193.11 129.759L1192.09 129.76L1192.03 130.39C1191.98 130.999 1191.95 131.022 1191.23 131.072L1190.49 131.122L1190.36 132.542C1190.29 133.323 1190.29 134.605 1190.36 135.391L1190.49 136.82H1191.19C1191.88 136.82 1191.89 136.825 1191.89 137.482C1191.89 138.142 1191.89 138.145 1192.65 138.197L1193.41 138.248L1193.46 139.635L1193.52 141.022H1194.23H1194.94V212.961V284.901H1193.41H1191.89V285.564C1191.89 286.223 1191.88 286.226 1191.12 286.278C1190.36 286.329 1190.36 286.333 1190.3 287.044C1190.25 287.736 1190.23 287.758 1189.63 287.758C1189.02 287.758 1189.01 287.765 1189.01 288.515C1189.01 289.267 1189.01 289.271 1189.64 289.271C1190.23 289.271 1190.27 289.302 1190.27 289.835V290.4L1189.16 290.508C1188.56 290.567 1186.9 290.616 1185.49 290.616H1182.92L1182.87 289.901C1182.81 289.191 1182.81 289.187 1182.05 289.135L1181.29 289.084V288.337V287.59H1180.59H1179.89L1179.76 286.246L1179.63 284.901H1178.93H1178.23V284.144V283.388H1177.52H1176.81L1176.76 282.001L1176.7 280.615L1175.94 280.563C1175.18 280.512 1175.18 280.508 1175.18 279.849C1175.18 279.189 1175.17 279.186 1174.47 279.186H1173.75L1173.7 277.799L1173.65 276.413L1172.89 276.361L1172.12 276.309V275.563V274.816H1171.42H1170.72L1170.6 273.471L1170.47 272.127H1169.77H1169.07V270.698V269.269H1168.36C1167.65 269.269 1167.65 269.266 1167.6 268.555L1167.54 267.84L1166.06 267.792L1164.58 267.743V266.682C1164.58 266.098 1164.52 265.156 1164.46 264.588L1164.35 263.554H1163.65C1162.96 263.554 1162.96 263.55 1162.96 262.882V262.21H1162.24H1161.52V261.453V260.697H1160.81C1160.11 260.697 1160.11 260.693 1160.05 259.983C1160 259.272 1159.99 259.268 1159.23 259.217L1158.47 259.165V257.746V256.327H1157.75H1157.03V255.654V254.982H1156.22H1155.41V253.553V252.125H1154.71C1154 252.125 1154 252.121 1153.94 251.41C1153.89 250.699 1153.88 250.696 1153.12 250.644L1152.36 250.593V249.258V247.923H1151.65C1150.95 247.923 1150.94 247.919 1150.89 247.208C1150.83 246.497 1150.83 246.494 1150.07 246.442L1149.31 246.39V245.644V244.897H1148.59H1147.87V243.552V242.208H1147.06H1146.25V241.451V240.695H1145.53H1144.81V238.51V236.325H1145.53C1146.23 236.325 1146.25 236.309 1146.25 235.746C1146.25 235.186 1146.27 235.166 1147.01 235.116C1147.77 235.064 1147.78 235.061 1147.83 234.35C1147.89 233.639 1147.89 233.636 1148.6 233.636C1149.3 233.636 1149.31 233.631 1149.31 232.983V232.331L1150.83 232.212L1152.36 232.092V231.435C1152.36 230.781 1152.36 230.778 1153.08 230.778H1153.8V230.106V229.433H1154.61H1155.41V228.677V227.921H1156.22H1157.03V227.266V226.611L1158.47 226.492L1159.91 226.373V225.718V225.063H1160.71H1161.52V224.408V223.754L1162.94 223.636L1164.36 223.518L1164.49 222.19L1164.61 220.861H1165.31H1166.01V220.105V219.348H1164.59H1163.16L1163.1 220.063C1163.05 220.774 1163.05 220.777 1162.29 220.829C1161.53 220.88 1161.52 220.884 1161.52 221.543V222.206H1160.71H1159.91V222.858V223.511L1158.38 223.63L1156.85 223.749V224.406C1156.85 225.061 1156.85 225.063 1156.13 225.063H1155.41V225.736V226.408H1154.61H1153.8V227.164V227.921H1152.27H1150.74V228.593V229.265H1150.02H1149.31V230.022V230.778H1148.5H1147.69V231.45V232.123H1146.97C1146.25 232.123 1146.25 232.125 1146.25 232.78V233.437L1144.72 233.556L1143.2 233.675V234.318C1143.2 234.954 1143.19 234.961 1142.43 235.013C1141.67 235.064 1141.67 235.068 1141.61 235.779C1141.56 236.489 1141.56 236.493 1140.85 236.493C1140.14 236.493 1140.14 236.495 1140.14 237.165V237.838H1139.33H1138.53V238.495V239.152L1137 239.271L1135.47 239.39V240.038V240.687L1132.46 240.733L1129.45 240.779L1129.4 241.409L1129.34 242.04H1128.03C1127.31 242.04 1125.62 242.089 1124.27 242.15L1121.82 242.26V242.906V243.552H1119.57H1117.33V244.225V244.897L1115.03 244.898C1113.77 244.898 1111.71 244.948 1110.44 245.008L1108.14 245.118L1108.2 244.377L1108.25 243.636L1109.02 243.585C1109.78 243.533 1109.78 243.53 1109.78 242.87C1109.78 242.209 1109.78 242.208 1110.5 242.208C1111.21 242.208 1111.22 242.206 1111.22 241.545C1111.22 240.886 1111.22 240.882 1111.98 240.831C1112.74 240.779 1112.74 240.776 1112.8 240.065L1112.85 239.35H1114.27H1115.69L1115.74 238.636C1115.8 237.925 1115.8 237.921 1116.56 237.87C1117.32 237.818 1117.33 237.815 1117.33 237.156V236.493H1118.13H1118.94V235.821V235.148H1119.66H1120.38V234.392V233.636H1121.19H1122V232.981V232.326L1123.43 232.207L1124.87 232.088V231.433V230.778H1125.68H1126.49V230.115C1126.49 229.456 1126.49 229.453 1127.25 229.401C1128.01 229.35 1128.02 229.346 1128.07 228.635C1128.13 227.924 1128.13 227.921 1128.83 227.921C1129.54 227.921 1129.54 227.919 1129.54 227.248V226.576H1130.26H1130.98V225.82V225.063H1129.45H1127.93V225.726C1127.93 226.385 1127.92 226.389 1127.16 226.44C1126.4 226.492 1126.4 226.496 1126.34 227.206L1126.29 227.921H1124.86H1123.43V228.677V229.433H1122.73C1122.04 229.433 1122.02 229.451 1121.96 230.064C1121.91 230.676 1121.88 230.696 1121.14 230.746C1120.38 230.797 1120.38 230.801 1120.38 231.46V232.123H1119.57H1118.76V232.879V233.636H1118.04C1117.33 233.636 1117.33 233.639 1117.33 234.288V234.94L1115.8 235.059L1114.27 235.179V235.836C1114.27 236.49 1114.27 236.493 1113.55 236.493H1112.83V237.165V237.838H1112.02H1111.22V238.5C1111.22 239.16 1111.21 239.163 1110.45 239.215C1109.69 239.266 1109.69 239.27 1109.63 239.981L1109.58 240.695H1108.16H1106.75L1106.69 241.409C1106.64 242.12 1106.63 242.124 1105.87 242.175C1105.11 242.227 1105.11 242.23 1105.11 242.89V243.552H1104.3H1103.49V244.225V244.897H1102.77C1102.07 244.897 1102.05 244.883 1102.05 244.309C1102.05 243.734 1102.04 243.72 1101.34 243.72C1100.63 243.72 1100.62 243.734 1100.62 244.309V244.897H1099.09H1097.56V245.653V246.41H1096.75H1095.93L1095.98 248.553L1096.03 250.696L1096.69 250.747L1097.35 250.798L1097.47 252.134L1097.6 253.469H1098.3H1099V254.226V254.982H1099.81H1100.62V256.411V257.839H1101.32C1102.03 257.839 1102.03 257.843 1102.09 258.554C1102.14 259.243 1102.17 259.27 1102.8 259.319L1103.46 259.371L1103.58 260.706L1103.71 262.042H1104.39H1105.07L1105.19 263.47L1105.32 264.899H1106.02H1106.72V265.655V266.412H1107.44H1108.16V267.84V269.269H1108.97H1109.78V270.614V271.958H1110.5H1111.22V272.715V273.471H1111.92H1112.62L1112.75 274.9L1112.88 276.329H1113.57H1114.27V277.757V279.186H1115.08H1115.89V279.942V280.699H1116.61H1117.33V282.127V283.556H1118.03H1118.73L1118.86 284.985L1118.98 286.414H1119.68C1120.38 286.414 1120.38 286.417 1120.38 287.086V287.758H1119.66H1118.94V288.431V289.103H1118.13H1117.33V291.288V293.473H1116.52H1115.71V294.145V294.818H1114.99H1114.27V296.246V297.675H1113.58H1112.89L1112.77 298.81C1112.71 299.434 1112.66 300.379 1112.66 300.911L1112.65 301.877H1111.94C1111.24 301.877 1111.22 301.898 1111.22 302.424C1111.22 302.724 1111.27 303.367 1111.33 303.852C1111.44 304.721 1111.46 304.735 1112.05 304.735C1112.63 304.735 1112.65 304.713 1112.65 304.062V303.39H1113.46H1114.27V302.045V300.701H1114.98C1115.67 300.701 1115.69 300.718 1115.74 301.331L1115.8 301.961L1118.09 302.008L1120.38 302.055V302.723V303.39H1118.85H1117.33V305.476V307.562L1115.8 307.681L1114.27 307.8V308.452V309.105H1112.04H1109.8L1109.74 308.39L1109.69 307.676L1107.4 307.629L1105.11 307.582V306.915C1105.11 306.248 1105.11 306.247 1104.39 306.247C1103.67 306.247 1103.67 306.246 1103.67 305.585C1103.67 304.925 1103.67 304.922 1104.43 304.87C1105.19 304.819 1105.2 304.815 1105.25 304.104C1105.31 303.394 1105.31 303.39 1106.02 303.39H1106.72V302.063V300.736L1108.16 300.617L1109.6 300.498V299.843V299.188H1110.41H1111.22V296.993V294.798L1110.45 294.85C1109.72 294.9 1109.69 294.924 1109.64 295.509L1109.58 296.116L1108.49 296.223C1107.88 296.282 1106.92 296.331 1106.35 296.331H1105.31L1105.25 295.616L1105.2 294.902H1102.86H1100.53L1100.47 295.639L1100.41 296.376L1099.32 296.269C1098.72 296.21 1098.08 296.162 1097.9 296.162C1097.6 296.162 1097.56 296.015 1097.56 294.818V293.473H1096.84H1096.12V294.145V294.818H1095.32H1094.51V295.574V296.331H1092.26H1090.02V295.574V294.818H1090.73H1091.45V293.389V291.96H1089.93H1088.4V291.288C1088.4 290.617 1088.4 290.616 1087.69 290.616C1086.99 290.616 1086.98 290.619 1086.93 291.33C1086.87 292.041 1086.87 292.045 1086.11 292.096L1085.35 292.148V289.953V287.758H1083.82H1082.29V288.431C1082.29 289.1 1082.29 289.103 1081.59 289.103H1080.9L1080.77 290.532L1080.64 291.96H1079.94C1079.24 291.96 1079.24 291.965 1079.24 292.618V293.275L1077.71 293.394L1076.18 293.513V295.594V297.675H1073.94H1071.69V297.003V296.331H1072.41H1073.13V294.818V293.305H1072.41C1071.71 293.305 1071.69 293.291 1071.69 292.717C1071.69 292.132 1071.69 292.128 1070.88 292.128C1070.08 292.128 1070.07 292.136 1070.07 292.693V293.257L1068.97 293.365C1068.36 293.425 1067.35 293.473 1066.72 293.473H1065.58V294.145V294.818H1064.05H1062.53V294.145V293.473H1061.72H1060.91V292.801V292.128H1059.38H1057.86V292.717V293.305H1056.42H1054.98V292.626V291.947L1053.41 291.996L1051.84 292.044L1051.78 292.759C1051.73 293.47 1051.72 293.473 1051.02 293.473C1050.31 293.473 1050.31 293.475 1050.31 294.145C1050.31 294.817 1050.31 294.818 1049.6 294.818H1048.89L1048.84 293.431L1048.78 292.044L1047.31 291.996L1045.84 291.947L1045.78 292.668C1045.73 293.387 1045.73 293.389 1044.97 293.441C1044.21 293.492 1044.2 293.496 1044.2 294.155V294.818H1042.65H1041.1L1041.21 293.785C1041.28 293.216 1041.33 292.574 1041.33 292.356C1041.33 292.006 1041.41 291.96 1042.05 291.96H1042.76V290.532V289.103H1043.48H1044.19L1044.24 287.716L1044.29 286.33L1045.06 286.278L1045.82 286.226V284.891V283.556H1046.54H1047.26V282.137V280.718L1048.02 280.666L1048.78 280.615L1048.84 279.228L1048.89 277.841H1049.6H1050.31V277.085V276.329H1051.12H1051.93V275.572V274.816H1052.65H1053.36V273.471V272.127H1054.06H1054.76L1054.89 270.698L1055.01 269.269H1055.72H1056.42V267.85V266.431L1057.18 266.379C1057.94 266.328 1057.95 266.324 1058 265.613C1058.06 264.902 1058.06 264.899 1058.77 264.899H1059.47V263.564V262.229L1060.24 262.177C1061 262.126 1061 262.122 1061.06 261.411C1061.11 260.7 1061.11 260.697 1061.82 260.697H1062.53V259.268V257.839H1063.23H1063.93L1064.06 256.411L1064.19 254.982H1064.88C1065.58 254.982 1065.58 254.979 1065.58 254.31V253.637H1066.3H1067.02V252.881V252.125H1067.71H1068.41L1068.52 251.091C1068.58 250.523 1068.64 249.237 1068.64 248.234V246.41H1067.83H1067.02V245.761V245.113L1065.91 245.005C1065.31 244.946 1063.93 244.897 1062.86 244.897H1060.91V244.225V243.552H1060.19C1059.48 243.552 1059.47 243.551 1059.47 242.89C1059.47 242.23 1059.47 242.227 1058.71 242.175C1057.95 242.124 1057.95 242.12 1057.89 241.409C1057.84 240.699 1057.83 240.695 1057.13 240.695C1056.42 240.695 1056.42 240.69 1056.42 240.04V239.385L1054.99 239.267L1053.56 239.149L1053.51 238.535C1053.46 237.943 1053.43 237.92 1052.69 237.87C1051.93 237.818 1051.93 237.815 1051.93 237.156V236.493H1051.12H1050.31V235.737V234.98H1049.59H1048.87V234.308V233.636H1047.35H1045.82V232.879V232.123H1045.01H1044.2V231.45V230.778H1043.48C1042.77 230.778 1042.76 230.776 1042.76 230.121V229.464L1041.24 229.345L1039.71 229.226V228.573V227.921H1038.9H1038.09V229.349V230.778H1039.62H1041.15V231.534V232.291H1041.86C1042.54 232.291 1042.57 232.308 1042.62 232.921C1042.67 233.533 1042.7 233.553 1043.44 233.603L1044.2 233.655V234.401V235.148H1045.01H1045.82V235.821V236.493H1046.54C1047.25 236.493 1047.26 236.495 1047.26 237.156C1047.26 237.815 1047.26 237.818 1048.02 237.87C1048.78 237.921 1048.78 237.925 1048.84 238.636C1048.89 239.347 1048.9 239.35 1049.6 239.35C1050.31 239.35 1050.31 239.352 1050.31 240.023C1050.31 240.693 1050.31 240.695 1051.02 240.695C1051.72 240.695 1051.73 240.699 1051.78 241.409C1051.84 242.12 1051.84 242.124 1052.6 242.175L1053.36 242.227V242.974V243.72H1054.08C1054.79 243.72 1054.8 243.734 1054.8 244.309V244.897H1051.75H1048.69V244.332C1048.69 243.776 1048.68 243.766 1047.75 243.661C1047.23 243.603 1045.9 243.555 1044.79 243.554L1042.76 243.552V242.906V242.26L1040.47 242.15C1039.21 242.09 1037.52 242.041 1036.71 242.04L1035.24 242.04L1035.18 241.409L1035.13 240.779L1032.03 240.733L1028.93 240.687V240.036V239.385L1027.49 239.266L1026.06 239.147V238.492V237.838H1025.25H1024.44V237.165C1024.44 236.495 1024.44 236.493 1023.73 236.493C1023.03 236.493 1023.02 236.489 1022.97 235.779C1022.91 235.068 1022.91 235.064 1022.15 235.013C1021.39 234.961 1021.38 234.954 1021.38 234.32V233.679L1019.96 233.562L1018.53 233.446L1018.48 232.826C1018.42 232.227 1018.4 232.205 1017.66 232.155C1016.9 232.104 1016.89 232.1 1016.89 231.441V230.778H1016.08H1015.28V230.123V229.468L1013.84 229.349L1012.4 229.23V228.576V227.921H1011.59H1010.78V227.164V226.408H1010.07H1009.35V225.736V225.063H1008.55H1007.75L1007.7 224.349C1007.64 223.638 1007.64 223.634 1006.88 223.583C1006.12 223.531 1006.11 223.528 1006.11 222.869V222.206H1004.69H1003.26L1003.2 221.492C1003.15 220.781 1003.15 220.777 1002.39 220.726C1001.63 220.674 1001.62 220.671 1001.62 220.011C1001.62 219.35 1001.62 219.348 1000.9 219.348H1000.18V218.676V218.004H998.658H997.13V219.331V220.658L998.568 220.777L1000.01 220.896V221.551V222.206H1000.81H1001.62V222.962V223.719H1002.43H1003.24V224.391V225.063H1003.96C1004.67 225.063 1004.68 225.066 1004.68 225.72V226.378L1006.2 226.497L1007.73 226.616V227.268C1007.73 227.917 1007.73 227.921 1008.45 227.921H1009.17V228.677V229.433H1009.98H1010.78V230.106V230.778H1012.21H1013.64L1013.69 231.492C1013.75 232.203 1013.75 232.207 1014.51 232.258C1015.27 232.31 1015.28 232.313 1015.28 232.973V233.636H1016.08H1016.89V234.392V235.148H1017.61H1018.33V235.821V236.493H1019.05H1019.77V238.594V240.695H1019.05H1018.33V241.451V242.208H1017.63H1016.93L1016.8 243.552L1016.68 244.897H1015.98H1015.28V245.653V246.41H1014.56H1013.84V247.166V247.923H1013.03H1012.22V249.267V250.612H1011.5H1010.78V251.368V252.125H1009.98H1009.17V252.881V253.637H1008.45H1007.73V254.972V256.307L1006.97 256.359C1006.21 256.411 1006.2 256.414 1006.15 257.125C1006.09 257.836 1006.09 257.839 1005.38 257.839H1004.68V259.268V260.697H1003.87H1003.06V261.369V262.042H1002.34H1001.62V262.798V263.554H1000.92H1000.22L1000.1 264.89L999.969 266.225L999.313 266.277C998.68 266.326 998.656 266.352 998.602 267.042C998.548 267.749 998.54 267.756 997.86 267.756H997.173L997.046 269.185L996.918 270.614H996.216H995.513V272.042V273.471H994.705H993.896V274.228V274.984H993.178H992.459V275.74V276.497H991.759H991.059L990.932 277.841L990.805 279.186H990.105H989.405V279.942V280.699H988.705H988.005L987.878 282.043L987.751 283.388H987.051H986.351V284.144V284.901H985.642C984.937 284.901 984.934 284.904 984.879 285.615C984.825 286.305 984.801 286.331 984.168 286.381L983.512 286.432L983.385 287.767L983.259 289.103H982.559C981.862 289.103 981.859 289.1 981.859 288.431V287.758H980.242H978.625V288.431C978.625 289.087 978.61 289.103 977.996 289.103H977.367V291.194V293.285L978.041 293.337C978.695 293.388 978.717 293.41 978.77 294.103L978.825 294.818H978.096C977.368 294.818 977.367 294.818 977.367 295.48C977.367 295.845 977.286 296.19 977.185 296.248C977.085 296.306 976.358 296.301 975.568 296.236L974.134 296.119V295.552C974.134 295.003 974.111 294.986 973.415 294.986C972.713 294.986 972.696 295 972.696 295.574C972.696 296.148 972.679 296.162 971.978 296.162H971.259V295.49V294.818H970.54C969.823 294.818 969.822 294.816 969.822 294.155C969.822 293.791 969.74 293.446 969.639 293.388C969.539 293.33 968.809 293.335 968.017 293.4L966.577 293.517L966.627 295.638L966.678 297.759L967.351 297.811C967.988 297.861 968.025 297.895 968.025 298.442C968.025 299.004 968.005 299.02 967.306 299.02H966.588V299.776V300.533H965.779H964.971V299.875V299.218L963.444 299.099L961.916 298.98V298.328C961.916 297.694 961.898 297.675 961.288 297.675C960.674 297.675 960.659 297.659 960.659 297.003V296.331H961.377H962.096V297.003V297.675H962.815H963.533V295.574V293.473H962.815H962.096V292.054V290.635L961.333 290.583L960.569 290.532L960.523 268.471L960.478 246.41H959.76C959.046 246.41 959.042 246.406 959.042 245.757V245.105L949.834 244.991C944.77 244.928 930.722 244.9 918.618 244.929L896.609 244.981L896.554 245.695C896.499 246.406 896.495 246.41 895.79 246.41H895.082V247.839V249.267H894.273H893.465V249.94V250.612H880.529H867.593V249.94C867.593 249.271 867.589 249.267 866.898 249.267H866.202L866.077 247.923L865.952 246.578H865.335H864.719V237.922V229.265H865.347C865.961 229.265 865.976 229.249 865.976 228.593V227.921H865.258H864.539V225.063V222.206H863.82C863.104 222.206 863.102 222.204 863.102 221.543C863.102 220.884 863.098 220.88 862.338 220.829C861.578 220.777 861.574 220.774 861.519 220.063L861.464 219.348H858.42H855.376V218.676V218.004H854.658H853.939V214.39V210.776H853.22H852.502V210.104V209.432H850.974H849.447V208.779V208.127L847.92 208.008L846.393 207.889V207.231V206.574H845.585H844.776V205.902C844.776 205.233 844.773 205.229 844.079 205.229H843.381L843.254 203.801L843.127 202.372H842.54H841.953L841.839 201.237C841.776 200.614 841.724 195.943 841.724 190.858C841.724 185.774 841.776 181.103 841.839 180.479L841.953 179.345H842.54H843.127L843.243 177.958C843.308 177.195 843.335 174.983 843.304 173.042L843.249 169.512L842.575 169.46L841.901 169.407V167.344C841.901 166.209 841.848 163.339 841.783 160.967L841.664 156.653H840.974C840.289 156.653 840.284 156.649 840.284 155.981V155.309H839.566H838.847V155.981V156.653H838.043H837.239L837.19 159.553L837.14 162.452L836.467 162.504C835.812 162.555 835.793 162.575 835.793 163.219V163.881H834.984H834.176V156.065V148.249H833.457H832.739V145.392V142.534H831.93H831.122V141.877V141.22L829.595 141.101L828.067 140.982V140.33C828.067 139.68 828.064 139.677 827.349 139.677H826.63V138.921V138.164H825.822H825.013V128.92V119.675H824.316H823.618L823.491 118.246L823.364 116.818H822.661C821.962 116.818 821.959 116.815 821.959 116.145V115.473H821.24H820.522V114.717V113.96H819.713H818.905V113.288V112.616H818.186H817.467V111.548C817.467 110.96 817.415 110.015 817.352 109.447C817.237 108.418 817.234 108.414 816.659 108.414H816.082L815.967 107.279C815.904 106.655 815.852 99.2427 815.852 90.8069L815.85 75.4693H815.133H814.415L814.369 57.6945L814.323 39.9197L813.677 39.8691L813.03 39.8184L812.914 37.6841C812.85 36.51 812.797 29.8201 812.797 22.8173L812.796 10.085H812.077H811.359V9.32861V8.57224H812.067C812.772 8.57224 812.776 8.56871 812.831 7.85788C812.886 7.14706 812.89 7.14336 813.649 7.09193L814.413 7.04016V4.27654V1.51275H812.886H811.359V0.756374V0L809.877 0.0294151C809.061 0.045551 808.062 0.0872348 807.655 0.122028ZM812.796 3.52975V4.20208H812.077H811.359V3.52975V2.85741H812.077H812.796V3.52975ZM1205.54 90.5128V91.2691H1204.82H1204.1V90.5128V89.7564H1204.82H1205.54V90.5128ZM812.796 144.551V145.224H813.605H814.413V145.98V146.737H815.132H815.85V148.165V149.594H815.132H814.413V151.023V152.451H812.886H811.359V153.124V153.796H809.832H808.304V153.124V152.451H807.496H806.687V151.779V151.107H805.969H805.25V148.165V145.224H805.969H806.687V144.551V143.879H809.742H812.796V144.551ZM126.636 180.965L127.74 181.073V182.394V183.715H124.776H121.812V182.38V181.045L122.575 180.98C123.979 180.862 125.522 180.856 126.636 180.965ZM124.78 186.747C124.843 186.842 124.839 187.485 124.77 188.175L124.644 189.43H122.419H120.195V188.094V186.759L121.048 186.696C122.94 186.556 124.67 186.58 124.78 186.747ZM122.145 192.395L123.249 192.503V193.824V195.144H120.888H118.526L118.642 194.111C118.705 193.543 118.757 192.942 118.757 192.776C118.757 192.477 118.835 192.458 120.662 192.316C120.87 192.3 121.537 192.336 122.145 192.395ZM121.632 200.103V200.859H120.913H120.195V201.532V202.204H118.668H117.14V201.532V200.859H116.422C115.704 200.859 115.703 200.858 115.703 200.194V199.528L117.275 199.472C118.14 199.441 119.474 199.4 120.24 199.381L121.632 199.347V200.103ZM118.642 206.263C118.846 208.088 119.072 207.919 116.422 207.919H114.086V207.246V206.574H114.895H115.703V205.902V205.229H117.115H118.526L118.642 206.263ZM1286.24 207.288C1286.3 207.999 1286.3 208.003 1287.06 208.054C1287.8 208.104 1287.83 208.127 1287.83 208.667V209.228L1289.25 209.346C1290.04 209.412 1290.76 209.414 1290.87 209.353C1290.98 209.291 1291.71 209.293 1292.5 209.358L1293.93 209.475V210.104V210.733L1296.8 210.855C1298.37 210.921 1299.75 210.927 1299.85 210.866C1299.96 210.806 1300.04 210.458 1300.04 210.094V209.432H1297.81H1295.57L1295.52 208.717L1295.46 208.003L1293.17 208.035L1290.88 208.067V207.32V206.574H1288.53H1286.19L1286.24 207.288ZM117.14 213.718V215.146H115.999C115.371 215.146 114.36 215.098 113.753 215.038L112.649 214.93V213.61V212.289H114.895H117.14V213.718ZM1309.21 212.961V213.634H1310.64H1312.08V212.961V212.289H1310.64H1309.21V212.961ZM1314.55 213.757C1313.72 213.819 1313.7 213.834 1313.7 214.375V214.93L1314.8 215.038C1316.8 215.233 1316.75 215.248 1316.75 214.39V213.634L1316.08 213.664C1315.71 213.681 1315.02 213.723 1314.55 213.757ZM336.329 225.82V236.493H335.611H334.892V225.82V215.146H335.611H336.329V225.82ZM340.906 216.533C340.971 217.296 340.996 221.777 340.961 226.492L340.898 235.064H340.186H339.473L339.427 225.105L339.381 215.146H340.085H340.789L340.906 216.533ZM420.052 232.207V249.267H419.334H418.615V232.207V215.146H419.334H420.052V232.207ZM424.608 216.18C424.672 216.748 424.724 224.425 424.724 233.24V249.267H423.915H423.107V232.207V215.146H423.8H424.493L424.608 216.18ZM280.095 217.247V217.836H278.568H277.041V217.247V216.659H278.568H280.095V217.247ZM114.086 222.601C114.086 224.391 114.138 226.319 114.201 226.887L114.317 227.921H114.92H115.523V232.879V237.838H114.805H114.086V257.083V276.329H112.559H111.032V247.839V219.348H112.559H114.086V222.601ZM281.532 221.534V222.206H280.005H278.478V221.534V220.861H280.005H281.532V221.534ZM283.149 230.106V230.778H282.341H281.532V230.106V229.433H282.341H283.149V230.106ZM468.885 245.737C468.915 250.868 468.888 255.69 468.824 256.453L468.709 257.839H467.288H465.867V247.176V236.512L466.63 236.444C467.05 236.407 467.717 236.383 468.112 236.392L468.831 236.409L468.885 245.737ZM298.241 238.594V240.695H297.522H296.804V238.594V236.493H297.522H298.241V238.594ZM321.058 247.082V257.671H320.339H319.621V254.898V252.125H318.902H318.183V247.839V243.552H318.902H319.621V240.023V236.493H320.339H321.058V247.082ZM447.541 247.166V257.839H446.014H444.487V247.166V236.493H446.014H447.541V247.166ZM312.04 238.636C312.095 239.346 312.1 239.35 312.799 239.35H313.501L313.552 241.493L313.602 243.636L314.276 243.689L314.949 243.741V250.118V256.495H314.346C313.751 256.495 313.74 256.509 313.629 257.377C313.566 257.863 313.515 259.111 313.514 260.151L313.512 262.042H308.931H304.349V261.285V260.529H303.631H302.912V256.999V253.469H303.629H304.345L304.392 246.368L304.439 239.266L305.113 239.214C305.743 239.165 305.787 239.126 305.787 238.612C305.787 238.309 305.842 238.01 305.911 237.946C305.979 237.882 307.373 237.85 309.01 237.876L311.985 237.922L312.04 238.636ZM286.024 240.023C286.024 240.679 286.009 240.695 285.395 240.695C284.781 240.695 284.766 240.679 284.766 240.023C284.766 239.366 284.781 239.35 285.395 239.35C286.009 239.35 286.024 239.366 286.024 240.023ZM1024.44 240.695V242.04H1023.72H1023V240.695V239.35H1023.72H1024.44V240.695ZM1141.58 241.451C1141.58 242.012 1141.55 242.04 1140.95 242.04C1140.35 242.04 1140.32 242.012 1140.32 241.451C1140.32 240.891 1140.35 240.863 1140.95 240.863C1141.55 240.863 1141.58 240.891 1141.58 241.451ZM287.641 245.149V246.578H288.359H289.078V252.881V259.184H288.359H287.641V259.941V260.697H286.922H286.203V252.209V243.72H286.922H287.641V245.149ZM298.42 250.335C298.42 253.234 298.369 256.07 298.305 256.638L298.19 257.671H297.497H296.804V251.368V245.065H297.612H298.42V250.335ZM1021.38 245.737V246.41H1019.95H1018.51V245.737V245.065H1019.95H1021.38V245.737ZM1057.86 245.737V246.41H1057.14H1056.42V245.737V245.065H1057.14H1057.86V245.737ZM1146.25 245.737V246.41H1144.72H1143.2V245.737V245.065H1144.72H1146.25V245.737ZM1149.31 250.033V250.799L1148.54 250.748C1147.85 250.701 1147.77 250.65 1147.72 250.22C1147.63 249.447 1147.79 249.267 1148.58 249.267H1149.31V250.033ZM1233.03 250.024C1233.03 250.609 1233.03 250.612 1233.84 250.612C1234.64 250.612 1234.65 250.609 1234.65 250.024C1234.65 249.439 1234.64 249.435 1233.84 249.435C1233.03 249.435 1233.03 249.439 1233.03 250.024ZM1245.25 252.773V253.421L1246.35 253.529C1248.34 253.724 1248.3 253.739 1248.3 252.881V252.125H1246.77H1245.25V252.773ZM1152.36 253.949C1152.36 254.12 1152.31 254.725 1152.24 255.294L1152.13 256.327H1151.53H1150.92V254.982V253.637H1151.64C1152.22 253.637 1152.36 253.698 1152.36 253.949ZM1301.48 264.983V276.329H1300.76H1300.04V277.757V279.186H1299.32H1298.61V266.412V253.637H1300.04H1301.48V264.983ZM1318.22 255.696C1318.28 256.407 1318.28 256.411 1319.04 256.462C1319.8 256.514 1319.81 256.52 1319.81 257.16V257.806H1323.58H1327.35V257.15V256.495H1325.11H1322.86V255.738V254.982H1320.51H1318.17L1318.22 255.696ZM1010.61 258.512C1010.61 259.168 1010.59 259.184 1009.98 259.184C1009.36 259.184 1009.35 259.168 1009.35 258.512C1009.35 257.855 1009.36 257.839 1009.98 257.839C1010.59 257.839 1010.61 257.855 1010.61 258.512ZM1155.41 258.302C1155.41 258.556 1155.36 259.161 1155.3 259.646C1155.19 260.515 1155.17 260.529 1154.58 260.529H1153.98V259.184V257.839H1154.69C1155.36 257.839 1155.41 257.874 1155.41 258.302ZM1409.64 262.145V265.107L1411.16 264.988L1412.69 264.869V265.539V266.209L1414.13 266.328L1415.57 266.447V267.084V267.721L1417.18 267.84L1418.8 267.96V268.531C1418.8 269.08 1418.82 269.101 1419.49 269.101H1420.18L1420.29 267.132C1420.34 266.05 1420.35 265.104 1420.3 265.031C1420.26 264.959 1419.9 264.899 1419.51 264.899C1418.8 264.899 1418.8 264.897 1418.8 264.227V263.554H1417.99H1417.18V262.882V262.21H1416.46H1415.75V261.453V260.697H1414.94H1414.13V259.941V259.184H1411.88H1409.64V262.145ZM1409.64 267V267.756H1410.36H1411.07V267V266.244H1410.36H1409.64V267ZM996.951 276.329V277.673H996.232C995.423 277.673 995.439 277.718 995.629 276.017L995.744 274.984H996.347H996.951V276.329ZM993.896 281.371V282.043H992.459H991.022V281.371V280.699H992.459H993.896V281.371ZM1382.15 282.706C1382.15 283.07 1382.21 283.404 1382.29 283.448C1382.36 283.492 1383.41 283.485 1384.62 283.433L1386.82 283.339V282.691V282.043H1384.48H1382.15V282.706ZM1042.7 285.934C1042.64 286.502 1042.59 287.145 1042.59 287.363C1042.59 287.712 1042.5 287.758 1041.87 287.758H1041.15V288.431V289.103H1040.43H1039.71V287.002V284.901H1041.26H1042.82L1042.7 285.934ZM1123.43 285.573V286.246H1124.15H1124.87V287.002V287.758H1125.59H1126.31V288.431V289.103H1124.88H1123.45L1123.4 288.389C1123.35 287.695 1123.32 287.673 1122.67 287.622L1122 287.57V286.235V284.901H1122.71H1123.43V285.573ZM590.553 287.086V287.758H591.271H591.99V305.575V323.392H591.271H590.553V324.064V324.737H588.307H586.061V305.575V286.414H588.307H590.553V287.086ZM561.627 304.819V321.879H560.916H560.204L560.152 320.492L560.1 319.106L559.336 319.054C558.576 319.003 558.573 318.999 558.573 318.34C558.573 317.682 558.567 317.677 557.876 317.677H557.18L557.098 316.757C557.053 316.251 557.054 314.625 557.1 313.143L557.183 310.449H557.859H558.535L558.663 309.105L558.79 307.76H559.383H559.976L560.11 306.121C560.183 305.22 560.191 301.684 560.128 298.263C560.064 294.843 560.065 291.08 560.129 289.901L560.245 287.758H560.936H561.627V304.819ZM604.387 288.413V289.068L605.824 289.187L607.261 289.306V307.021V324.737H604.297H601.333V306.92V289.103H602.051H602.77V288.431V287.758H603.578H604.387V288.413ZM620.673 289.271C621.046 289.271 621.095 289.349 621.095 289.943V290.616H621.814H622.533V307.676V324.737H619.478H616.424V308.037C616.424 298.852 616.476 290.876 616.539 290.313L616.653 289.288L617.392 289.215C617.798 289.175 618.608 289.171 619.19 289.207C619.773 289.242 620.44 289.271 620.673 289.271ZM636.251 290.304C636.315 290.872 636.367 292.763 636.367 294.506V297.675H636.996H637.624V306.92V316.164H636.996C636.37 316.164 636.367 316.168 636.367 316.921C636.367 317.673 636.37 317.677 636.996 317.677H637.624V319.022V320.366H636.996H636.367V321.518C636.367 322.152 636.315 323.135 636.251 323.703L636.136 324.737H633.916H631.696V307.592V290.448H632.414C633.116 290.448 633.133 290.434 633.133 289.859V289.271H634.635H636.136L636.251 290.304ZM650.021 289.859C650.021 290.434 650.038 290.448 650.74 290.448H651.459V291.204V291.96H652.177H652.896V308.348V324.737H649.931H646.967V307.676V290.616H647.686H648.404V289.943V289.271H649.213C650.017 289.271 650.021 289.274 650.021 289.859ZM1179.67 290.616V291.96H1178.95H1178.23V290.616V289.271H1178.95H1179.67V290.616ZM576.898 306.896V323.177L575.907 323.273C575.362 323.325 574.038 323.325 572.966 323.272L571.015 323.176L570.903 322.167C570.755 320.845 570.756 295.844 570.904 294.522L571.017 293.504L572.431 293.387L573.844 293.27V292.709C573.844 292.169 573.873 292.146 574.608 292.096C575.367 292.045 575.371 292.041 575.426 291.33C575.481 290.619 575.485 290.616 576.19 290.616H576.898V306.896ZM665.148 291.33C665.201 292.017 665.227 292.046 665.848 292.095L666.493 292.146L666.611 297.459C666.762 304.227 666.763 322.11 666.613 323.602L666.498 324.737H662.841H659.184V309.105V293.473H659.903H660.621V292.044V290.616H662.857H665.092L665.148 291.33ZM1085.35 292.801V293.473H1086.06H1086.78V294.902V296.331H1085.35H1083.91V295.574V294.818H1083.19H1082.47V294.145V293.473H1083.19H1083.91V292.801V292.128H1084.63H1085.35V292.801ZM1123.43 293.473V294.818H1124.15H1124.87V296.246V297.675H1124.15H1123.43V296.919V296.162H1122.63C1121.82 296.162 1121.82 296.159 1121.82 295.574C1121.82 295 1121.8 294.986 1121.1 294.986H1120.38V295.658V296.331H1119.66H1118.94V295.658V294.986H1119.66H1120.38V294.239V293.492L1121.14 293.441C1121.88 293.391 1121.91 293.371 1121.96 292.759C1122.02 292.146 1122.04 292.128 1122.73 292.128H1123.43V293.473ZM1257.28 292.801C1257.28 293.457 1257.27 293.473 1256.65 293.473C1256.04 293.473 1256.02 293.457 1256.02 292.801C1256.02 292.144 1256.04 292.128 1256.65 292.128C1257.27 292.128 1257.28 292.144 1257.28 292.801ZM1271.08 296.204L1271.13 299.02H1270.4H1269.68V296.152V293.285L1270.35 293.337L1271.03 293.389L1271.08 296.204ZM1100.58 298.474C1100.64 299.184 1100.64 299.188 1101.35 299.188C1102.05 299.188 1102.05 299.19 1102.05 299.86V300.533H1100.62H1099.18V299.094V297.655L1099.85 297.707C1100.51 297.758 1100.53 297.78 1100.58 298.474ZM1079.24 301.289V302.045H1078.52H1077.8L1077.8 303.768C1077.8 304.716 1077.75 306.002 1077.68 306.626L1077.57 307.76H1076.87C1076.19 307.76 1076.18 307.764 1076.18 308.432V309.105H1079.24H1082.29V310.534V311.962H1079.24H1076.18V312.635V313.307H1075.46H1074.74V312.635V311.962H1074.03H1073.31V311.29V310.618H1074.03H1074.74V307.76V304.903H1075.46H1076.18V303.474V302.045H1076.99H1077.8V301.289V300.533H1078.52H1079.24V301.289ZM969.642 303.474V304.903H968.923H968.205V305.575V306.247H967.396H966.588V306.92V307.592H963.623H960.659V306.92V306.247H962.096H963.533V305.575V304.903H964.342H965.15V304.246V303.588L966.678 303.469L968.205 303.35V302.698C968.205 302.049 968.208 302.045 968.923 302.045H969.642V303.474ZM1108.16 303.484V304.922L1108.93 304.87L1109.69 304.819L1109.74 303.432L1109.79 302.045H1108.98H1108.16V303.484ZM1126.49 302.718V303.39H1127.93H1129.36V304.062V304.735H1127.21H1125.05V303.39V302.045H1125.77H1126.49V302.718ZM1229.97 305.575V306.247H1229.26H1228.54V305.575V304.903H1229.26H1229.97V305.575ZM16.7087 306.905V307.562L18.2358 307.681L19.7629 307.8V308.452C19.7629 309.101 19.7665 309.105 20.4816 309.105H21.2003V309.777V310.449H19.6731H18.146V309.777V309.105H16.6188H15.0917V309.777V310.449H14.3731H13.6544V308.348V306.247H15.1815H16.7087V306.905ZM1120.38 308.432V309.105H1119.66H1118.94V308.432V307.76H1119.66H1120.38V308.432ZM25.7648 310.369C25.8321 311.065 25.8386 311.708 25.779 311.798C25.7193 311.888 25.3521 311.962 24.9626 311.962H24.2545V311.206V310.449H23.5359H22.8172V309.777V309.105H24.2297H25.6422L25.7648 310.369ZM13.6203 311.248C13.5676 311.844 13.5279 311.881 12.8908 311.93L12.2171 311.983V311.3V310.618H12.9465H13.6761L13.6203 311.248ZM1038.09 313.391V314.82H1037.4H1036.7L1036.57 316.248L1036.44 317.677H1035.83C1035.24 317.677 1035.22 317.696 1035.22 318.349V319.022H1031.45H1027.67V318.349V317.677H1028.39H1029.11V316.921V316.164H1030.55H1031.99V316.921V317.677H1033.6H1035.22V314.82V311.962H1036.66H1038.09V313.391ZM1044.2 313.307V314.652H1042.76H1041.33V313.307V311.962H1042.76H1044.2V313.307ZM1067.02 314.82V316.164H1066.3H1065.58V316.921V317.677H1066.3H1067.02V319.022V320.366H1066.3H1065.58V319.694V319.022H1064.86H1064.14V316.921V314.82H1064.86H1065.58V314.147V313.475H1066.3H1067.02V314.82ZM18.146 315.492V316.164H17.4273H16.7087V315.492V314.82H17.4273H18.146V315.492ZM1062.53 317.005V319.19H1063.25C1063.95 319.19 1063.97 319.204 1063.97 319.778C1063.97 320.352 1063.95 320.366 1063.25 320.366H1062.53V321.207V322.047H1061.82C1061.13 322.047 1061.11 322.065 1061.06 322.678C1061 323.289 1060.98 323.309 1060.24 323.359C1059.48 323.411 1059.47 323.414 1059.47 324.074V324.737H1058.65H1057.83L1057.89 323.35L1057.95 321.963L1057.27 321.911C1056.62 321.86 1056.6 321.84 1056.6 321.197C1056.6 320.536 1056.6 320.534 1057.32 320.534H1058.04V319.022V317.509H1057.32C1056.62 317.509 1056.6 317.493 1056.6 316.931C1056.6 316.384 1056.64 316.35 1057.27 316.3C1057.93 316.25 1057.95 316.227 1058 315.534L1058.06 314.82H1060.29H1062.53V317.005ZM1079.24 316.921V319.022H1077.8H1076.36V318.349V317.677H1077.08H1077.8V316.248V314.82H1078.52H1079.24V316.921ZM1083.91 315.492V316.164H1083.19H1082.47V315.492V314.82H1083.19H1083.91V315.492ZM1042.52 316.391C1042.54 316.405 1042.61 317.003 1042.68 317.719L1042.81 319.022H1040.56H1038.31L1038.18 320.45L1038.05 321.879H1037.35H1036.66V323.308V324.737H1035.13H1033.6V325.493V326.249H1032.79H1031.99V326.922V327.594H1031.27H1030.55V326.922V326.249H1031.27H1031.99L1032.03 325.451C1032.05 325.012 1032.07 324.047 1032.07 323.308L1032.07 321.963L1033.51 321.959C1034.3 321.956 1035.33 321.937 1035.8 321.917L1036.66 321.879V319.778V317.677H1037.46H1038.27V317.014C1038.27 316.358 1038.28 316.351 1039.04 316.28C1039.67 316.22 1042.43 316.308 1042.52 316.391ZM1054.8 320.45V321.879H1052.65H1050.49V321.207V320.534H1051.21C1051.93 320.534 1051.93 320.533 1051.93 319.872C1051.93 319.214 1051.93 319.209 1052.69 319.145C1053.11 319.109 1053.76 319.067 1054.13 319.051L1054.8 319.022V320.45ZM15.0917 321.879V323.224H14.3731H13.6544V321.879V320.534H14.3731H15.0917V321.879ZM1070.07 321.207V321.879H1069.35H1068.64V323.98V326.081H1067.83C1067.03 326.081 1067.02 326.075 1067.02 325.51V324.94L1065.58 324.821L1064.14 324.702V324.047C1064.14 323.395 1064.15 323.392 1064.86 323.392C1065.58 323.392 1065.58 323.39 1065.58 322.729C1065.58 322.07 1065.59 322.066 1066.35 322.015C1067.11 321.963 1067.11 321.96 1067.16 321.249L1067.22 320.534H1068.65H1070.07V321.207Z" fill="#E9E7E8"/>
</svg>
