<svg width="179" height="49" viewBox="0 0 179 49" fill="none" xmlns="http://www.w3.org/2000/svg">
<path fill-rule="evenodd" clip-rule="evenodd" d="M0 0H36.7441L51.3623 14.6182V48.3979H0V0Z" fill="#2B2A29"/>
<path fill-rule="evenodd" clip-rule="evenodd" d="M1.04004 1.04031H36.3121L50.3221 15.0489V47.358H1.04004V1.04031Z" fill="#FEFEFE"/>
<path fill-rule="evenodd" clip-rule="evenodd" d="M2.08032 2.08044H35.8817L49.2821 15.4808V46.3193H2.08032V2.08044Z" fill="#E31E24"/>
<path d="M5.76123 5.41464C7.502 5.45076 8.46846 5.46954 8.64326 5.46954C19.9229 22.7993 25.7621 31.8152 26.1767 32.4956H26.2316L40.2951 10.7858L46.7107 16.9052V43.9617C46.7107 44.0527 46.6644 44.1003 46.5734 44.1003H41.4999L41.3713 44.0454C41.4074 42.4982 41.4262 41.3295 41.4262 40.5379V30.5555C41.4262 27.3874 41.4537 23.1243 41.4999 17.7474V17.6925H41.4262C41.0853 18.2819 36.997 24.6181 29.1787 36.6807C28.0547 38.449 27.448 39.3432 27.3367 39.3793H24.8867C17.8325 28.5041 13.1924 21.2665 10.9633 17.6925H10.9084V43.9645C10.9084 44.057 10.8622 44.1032 10.7712 44.1032H5.70633C5.61388 44.1032 5.56909 44.057 5.56909 43.9645V5.54755C5.56909 5.4652 5.6341 5.41753 5.76267 5.41753L5.76123 5.41464Z" fill="#FEFEFE"/>
<path fill-rule="evenodd" clip-rule="evenodd" d="M39.5598 0.000183105H51.3624V11.8028H50.4595L39.5598 0.903076V0.000183105Z" fill="#FFED00"/>
<path d="M40.0452 39.9586V40.2403C40.0452 41.0782 40.3919 41.7774 41.0868 42.3379C41.5433 42.6644 42.0301 42.8262 42.556 42.8262H42.7496C43.5976 42.8262 44.2895 42.4549 44.8226 41.7081C45.1144 41.2501 45.2574 40.7113 45.2574 40.0944C45.2574 38.9922 44.8125 38.186 43.9211 37.679C43.5557 37.4825 43.1685 37.3843 42.7654 37.3843H42.5401C41.6444 37.3843 40.925 37.8032 40.3876 38.6411C40.1593 39.0976 40.0452 39.5368 40.0452 39.9615V39.9586ZM42.686 36.1303C44.2202 36.1303 45.3932 36.7819 46.2065 38.0864C46.533 38.7148 46.6948 39.3591 46.6948 40.0222V40.1681C46.6948 41.3801 46.221 42.3928 45.2733 43.2061C44.5337 43.7926 43.6611 44.083 42.6571 44.083C41.2443 44.083 40.1232 43.5297 39.2926 42.4203C38.8259 41.7369 38.5948 40.9597 38.5948 40.0901C38.5948 38.6873 39.1755 37.5793 40.3414 36.766C41.0247 36.3413 41.8048 36.1303 42.6845 36.1303H42.686ZM35.0916 34.4156L35.1161 34.4445V36.1303H37.3221C37.3438 36.1303 37.3539 36.1405 37.3539 36.1621L37.3279 37.2947H35.1161V41.5289C35.1161 42.1544 35.3227 42.5633 35.7359 42.7482C35.8977 42.8247 36.0725 42.8652 36.2661 42.8652H36.4596C36.7645 42.8652 37.0953 42.7829 37.4535 42.6153V43.7334C37.2152 43.9675 36.7991 44.083 36.2025 44.083C35.0497 44.083 34.2811 43.6482 33.8954 42.7785C33.7495 42.4636 33.6787 42.049 33.6787 41.5434V34.8258C33.7004 34.7941 34.1714 34.6568 35.0916 34.4156V34.4156ZM24.2728 36.1303H25.6408C25.6625 36.1361 25.6697 36.1462 25.6697 36.1621V40.5263C25.6697 41.6026 26.0569 42.3047 26.8283 42.6312C27.1013 42.7453 27.4033 42.8031 27.7298 42.8031H27.8627C28.9548 42.8031 29.6916 42.283 30.0758 41.2501C30.1741 40.9366 30.2217 40.5321 30.2217 40.0308V36.1636C30.2217 36.1419 30.2318 36.1318 30.2535 36.1318H31.6216C31.6404 36.1376 31.6505 36.1477 31.6505 36.1636V43.9675C31.6505 43.9877 31.6389 43.9992 31.6216 43.9992L30.2954 43.9833C30.3055 43.2061 30.3012 42.8536 30.3012 42.8175C29.628 43.6626 28.7497 44.0845 27.6662 44.0845H27.581C26.0959 44.0845 25.076 43.4907 24.5212 42.3061C24.3363 41.8164 24.2395 41.2674 24.2395 40.6593V36.1636C24.2453 36.1419 24.2554 36.1318 24.2713 36.1318L24.2728 36.1303ZM17.7647 35.6796L15.7393 40.0063H19.832L17.8037 35.6796H17.7633H17.7647ZM18.0825 32.9464C18.2385 33.2093 20.0097 36.8859 23.3944 43.9747C23.4045 43.9747 23.4233 44.0065 23.4508 44.0671L23.4103 44.083H21.7721C21.6681 43.914 21.2289 42.988 20.4517 41.3108H15.1398C15.1181 41.3108 14.796 41.9941 14.169 43.3622C13.9364 43.836 13.8108 44.0772 13.7949 44.083H12.1567L12.1162 44.0671L17.5697 32.9464H18.0811H18.0825Z" fill="#2B2A29"/>
<path d="M63.7138 19.1719C62.6751 19.1719 61.7433 19.0548 60.9256 18.8179C60.108 18.5839 59.4131 18.1866 58.8497 17.6304C58.2863 17.0743 57.8544 16.3332 57.5568 15.4129C57.2592 14.4956 57.1104 13.3471 57.1104 11.9805V10.4535C57.1104 9.09702 57.2592 7.96009 57.5568 7.04565C57.8544 6.12831 58.2863 5.39155 58.8497 4.83536C59.4131 4.27629 60.108 3.88191 60.9256 3.64499C61.7447 3.41096 62.6765 3.29395 63.7138 3.29395C64.0648 3.29395 64.4159 3.30117 64.7655 3.32284C65.1165 3.34451 65.4488 3.37629 65.768 3.41818C66.0873 3.45719 66.3849 3.51064 66.6709 3.56698C66.9541 3.62765 67.2054 3.69122 67.425 3.75767C67.5449 3.79379 67.5912 3.87469 67.5709 3.99892L67.2314 6.08497C67.2098 6.20921 67.1361 6.25543 67.0119 6.23087C66.4947 6.12397 65.9631 6.05319 65.417 6.01129C64.8753 5.9694 64.3393 5.95062 63.8149 5.95062C63.1778 5.95062 62.6144 6.0214 62.129 6.16298C61.6407 6.30455 61.229 6.5458 60.8996 6.88962C60.5659 7.22911 60.3146 7.68273 60.1412 8.24613C59.9679 8.81243 59.8783 9.51163 59.8783 10.351V12.0831C59.8783 12.9267 59.9635 13.6346 60.134 14.2023C60.3045 14.7686 60.5558 15.2222 60.8881 15.5661C61.2175 15.9099 61.6321 16.1511 62.1204 16.2927C62.613 16.4343 63.1764 16.5051 63.8135 16.5051C64.4159 16.5051 64.9894 16.4877 65.5427 16.4487C66.0916 16.4097 66.6233 16.3563 67.1332 16.2898C67.2603 16.2682 67.3311 16.3187 67.3528 16.4415L67.6533 18.5709C67.6677 18.6489 67.6634 18.7023 67.6432 18.7298C67.6215 18.7616 67.5753 18.7905 67.5088 18.8078C67.2791 18.8641 67.0205 18.9147 66.7287 18.9595C66.4383 19.0057 66.1306 19.0404 65.8042 19.0722C65.482 19.104 65.1382 19.1285 64.7842 19.1473C64.426 19.1646 64.0692 19.1719 63.7109 19.1719H63.7138ZM73.7395 6.18754C73.7395 7.73184 73.7149 9.09557 73.6644 10.2831C73.6182 11.4705 73.53 12.5078 73.4058 13.3977C73.2816 14.2876 73.1154 15.0446 72.9031 15.6759C72.6907 16.3028 72.4249 16.8344 72.1027 17.2635C71.7835 17.6926 71.3978 18.0393 70.9514 18.3022C70.505 18.5651 69.9835 18.7775 69.3883 18.9364C69.2713 18.9754 69.2034 18.9364 69.1831 18.8093L68.7367 16.4964C68.7079 16.3722 68.7541 16.2942 68.8711 16.2595C69.1904 16.1598 69.4591 16.0226 69.6859 15.8377C69.9098 15.6527 70.1005 15.4014 70.2565 15.0763C70.4125 14.7498 70.5368 14.3425 70.6292 13.8571C70.7246 13.3688 70.7953 12.7736 70.8488 12.0715C70.9022 11.3665 70.934 10.5445 70.9514 9.60553C70.9687 8.66363 70.9759 7.57871 70.9759 6.34644V3.76056C70.9759 3.63632 71.0395 3.57565 71.1637 3.57565H80.2764C80.4036 3.57565 80.4642 3.63632 80.4642 3.76056V18.6966C80.4642 18.8208 80.4036 18.8844 80.2764 18.8844H77.9029C77.7758 18.8844 77.7151 18.8208 77.7151 18.6966V6.19042H73.7395V6.18754ZM84.9455 19.1719C84.3792 19.1719 83.875 19.0967 83.433 18.945C83.3622 18.9234 83.3159 18.8959 83.2986 18.8598C83.2769 18.8237 83.2697 18.7746 83.2769 18.7038L83.5254 16.95C83.5471 16.8258 83.6179 16.7723 83.745 16.794C83.9039 16.8229 84.0744 16.8431 84.2622 16.8576C84.45 16.872 84.6161 16.8792 84.762 16.8792C85.1405 16.8792 85.4742 16.8619 85.7617 16.8258C86.0492 16.7897 86.3005 16.7189 86.5158 16.6062C86.7282 16.4964 86.9131 16.3447 87.0647 16.1454C87.2164 15.9474 87.3551 15.6845 87.4794 15.3523L82.5402 3.74611C82.4911 3.6291 82.5301 3.57276 82.6529 3.57276H85.2359C85.3702 3.57276 85.4525 3.6291 85.4872 3.74611L88.0095 10.4737C88.141 10.8465 88.232 11.1643 88.2826 11.4272C88.336 11.693 88.3678 11.8591 88.3822 11.927L90.4365 3.74611C90.451 3.67822 90.4755 3.63343 90.5044 3.60743C90.5362 3.58287 90.5896 3.57131 90.6677 3.57131H93.2608C93.3778 3.57131 93.424 3.62765 93.3951 3.74467L89.8558 15.0503C89.6001 15.8651 89.3415 16.5383 89.0757 17.0699C88.8142 17.5972 88.5022 18.019 88.1367 18.3311C87.7755 18.6431 87.3392 18.8584 86.8293 18.9826C86.3222 19.1068 85.6924 19.1704 84.944 19.1704L84.9455 19.1719ZM93.6754 18.8815C93.5511 18.8815 93.5266 18.8324 93.6002 18.7356L99.8396 10.9519L93.6002 3.71722C93.5251 3.61754 93.5468 3.57131 93.6638 3.57131H96.6643C96.7394 3.57131 96.7987 3.58143 96.842 3.60021C96.881 3.62188 96.9272 3.66088 96.9763 3.71722L102.04 9.76877V3.75623C102.04 3.63199 102.103 3.57131 102.228 3.57131H104.47C104.594 3.57131 104.657 3.63199 104.657 3.75623V9.76877L109.731 3.71722C109.773 3.66088 109.816 3.62188 109.862 3.60021C109.904 3.58287 109.969 3.57131 110.043 3.57131H113.033C113.15 3.57131 113.172 3.61754 113.094 3.71722L106.869 10.9519L113.094 18.7356C113.172 18.8309 113.148 18.8815 113.023 18.8815H109.984C109.906 18.8815 109.845 18.8714 109.806 18.8497C109.764 18.828 109.721 18.7934 109.682 18.737L104.659 12.2925V18.6937C104.659 18.8179 104.595 18.8815 104.471 18.8815H102.229C102.105 18.8815 102.041 18.8179 102.041 18.6937V12.2925L97.0385 18.737C96.9966 18.7934 96.9576 18.8295 96.9142 18.8497C96.8723 18.8714 96.8145 18.8815 96.7365 18.8815H93.6754V18.8815ZM118.741 19.0794C118.514 19.0794 118.256 19.0765 117.965 19.0693C117.675 19.0621 117.37 19.0519 117.051 19.0375C116.732 19.0231 116.407 19.0086 116.077 18.9913C115.744 18.9739 115.421 18.9523 115.109 18.9234C114.985 18.9162 114.922 18.8483 114.922 18.7255V3.75767C114.922 3.63343 114.985 3.57276 115.109 3.57276H123.974C124.098 3.57276 124.161 3.63343 124.161 3.75767V5.99973C124.161 6.12397 124.098 6.18754 123.974 6.18754H117.685V9.31227C117.766 9.31227 117.856 9.30938 117.954 9.30504C118.049 9.30215 118.144 9.29782 118.244 9.29493C118.34 9.29204 118.432 9.29204 118.517 9.29204C118.605 9.29204 118.68 9.29204 118.741 9.29204C119.892 9.29204 120.909 9.34549 121.798 9.44806C122.688 9.55063 123.438 9.76732 124.047 10.0967C124.653 10.4261 125.118 10.9014 125.436 11.5168C125.755 12.1365 125.914 12.9628 125.914 13.9929V14.3974C125.914 15.4216 125.755 16.2436 125.436 16.859C125.116 17.4715 124.653 17.9468 124.047 18.2762C123.438 18.6027 122.686 18.8179 121.798 18.9248C120.908 19.0274 119.892 19.0808 118.741 19.0808V19.0794ZM123.156 13.9495C123.156 13.467 123.088 13.0813 122.958 12.7938C122.827 12.5063 122.607 12.2868 122.302 12.138C121.997 11.9892 121.6 11.8938 121.105 11.8476C120.609 11.8014 119.999 11.7797 119.273 11.7797C119.156 11.7797 119.024 11.7797 118.883 11.7797C118.741 11.7797 118.6 11.7826 118.458 11.7869C118.316 11.7898 118.178 11.7898 118.043 11.7941C117.909 11.797 117.788 11.8043 117.685 11.8115V16.5441C117.926 16.5657 118.195 16.5802 118.493 16.5903C118.79 16.6004 119.049 16.6047 119.273 16.6047C119.992 16.6047 120.597 16.5874 121.094 16.5441C121.59 16.5022 121.987 16.4054 122.292 16.2537C122.597 16.102 122.816 15.881 122.951 15.595C123.085 15.3075 123.156 14.9189 123.156 14.4263V13.9481V13.9495ZM126.993 18.8815C126.869 18.8815 126.827 18.8208 126.869 18.7038L131.715 3.74611C131.744 3.67822 131.772 3.63343 131.803 3.60743C131.835 3.58287 131.889 3.57131 131.962 3.57131H135.388C135.466 3.57131 135.519 3.58143 135.551 3.60743C135.58 3.63199 135.611 3.67822 135.639 3.74611L140.507 18.7038C140.546 18.8208 140.507 18.8815 140.38 18.8815H137.724C137.648 18.8815 137.596 18.8714 137.565 18.8454C137.533 18.8208 137.508 18.7746 137.487 18.7038L136.584 15.7669H130.752L129.859 18.7038C129.837 18.7746 129.813 18.8208 129.781 18.8454C129.749 18.8699 129.696 18.8815 129.618 18.8815H126.993V18.8815ZM133.667 6.2511L131.516 13.2763H135.824L133.667 6.2511V6.2511ZM64.2208 34.7637C64.1789 34.0559 64.0692 33.4665 63.8871 32.9926C63.7094 32.5173 63.4653 32.1388 63.1576 31.8514C62.8499 31.5639 62.4772 31.3587 62.0452 31.2388C61.6133 31.1189 61.1236 31.0583 60.5789 31.0583C60.1152 31.0583 59.6255 31.0727 59.1083 31.1045C58.594 31.1363 58.0667 31.2215 57.5279 31.3602C57.4499 31.3703 57.4008 31.3631 57.3791 31.3385C57.3617 31.3096 57.343 31.2605 57.33 31.1926L56.9645 29.0748C56.95 29.004 56.9616 28.9578 56.9934 28.9289C57.0223 28.9 57.0743 28.8754 57.1422 28.8538C57.3516 28.7859 57.5886 28.7223 57.8544 28.6688C58.1202 28.6125 58.4077 28.5619 58.7154 28.5229C59.0231 28.481 59.3423 28.4478 59.676 28.4276C60.0098 28.4059 60.3464 28.3987 60.6931 28.3987C61.6884 28.3987 62.5783 28.5157 63.3613 28.7497C64.1443 28.9867 64.8074 29.381 65.3491 29.9401C65.8908 30.4963 66.3054 31.2331 66.5886 32.1504C66.8717 33.0648 67.0133 34.2018 67.0133 35.5583V37.0852C67.0133 38.4533 66.8717 39.6003 66.5886 40.5177C66.3054 41.4394 65.8908 42.179 65.3491 42.7352C64.8074 43.2914 64.1443 43.6886 63.3613 43.9227C62.5783 44.1596 61.6884 44.2766 60.6931 44.2766C60.3203 44.2766 59.952 44.2665 59.5908 44.2448C59.2325 44.2232 58.8931 44.1986 58.5738 44.1639C58.2545 44.1278 57.9685 44.0888 57.7099 44.044C57.4513 43.9978 57.2346 43.9559 57.0728 43.9126C56.9457 43.8952 56.8879 43.8201 56.8951 43.6959L57.2072 41.5448C57.2144 41.4278 57.278 41.3743 57.4022 41.3816C57.8948 41.4567 58.4048 41.513 58.9321 41.552C59.4637 41.591 60.0126 41.6084 60.5789 41.6084C61.1669 41.6084 61.6841 41.5405 62.1348 41.4032C62.5841 41.2617 62.964 41.0305 63.2717 40.7055C63.5794 40.379 63.8135 39.9471 63.9767 39.4053C64.1399 38.8592 64.2281 38.1832 64.2425 37.3756H58.3152C58.191 37.3756 58.1274 37.3121 58.1274 37.1878V34.9457C58.1274 34.8215 58.191 34.7608 58.3152 34.7608H64.2208V34.7637ZM74.0487 44.187C73.8002 44.187 73.517 44.1841 73.205 44.1769C72.8901 44.1697 72.5563 44.1596 72.2125 44.1451C71.8658 44.1307 71.5104 44.1163 71.1464 44.0989C70.7852 44.0816 70.4342 44.0599 70.0947 44.031C69.9705 44.0238 69.9069 43.9559 69.9069 43.8331V28.8653C69.9069 28.7411 69.9705 28.6775 70.0947 28.6703C70.3634 28.6486 70.6653 28.6284 70.9976 28.6067C71.3313 28.5851 71.6708 28.5677 72.0247 28.5576C72.3787 28.5432 72.7297 28.533 73.0836 28.5258C73.4347 28.5186 73.7713 28.5157 74.0905 28.5157C75.2318 28.5157 76.2055 28.5721 77.013 28.6862C77.8177 28.7989 78.4721 29.0011 78.9792 29.2857C79.4819 29.5688 79.8503 29.956 80.0843 30.4472C80.314 30.9355 80.431 31.5595 80.431 32.3136V32.4263C80.431 33.1212 80.2967 33.7019 80.0265 34.1758C79.7578 34.651 79.4024 35.0223 78.9676 35.2925C79.2869 35.4384 79.5801 35.6262 79.8503 35.853C80.119 36.0827 80.353 36.3528 80.5451 36.6677C80.7402 36.9827 80.8919 37.3409 81.0016 37.7411C81.1114 38.1456 81.1678 38.5949 81.1678 39.0904V39.5151C81.1678 40.2028 81.0999 40.7936 80.9583 41.2906C80.8196 41.7904 80.6145 42.2122 80.3415 42.5589C80.0684 42.9028 79.7289 43.183 79.3244 43.3954C78.9199 43.6049 78.4533 43.7681 77.9289 43.888C77.4045 44.005 76.8166 44.083 76.165 44.1249C75.5135 44.1668 74.8085 44.1885 74.0458 44.1885L74.0487 44.187ZM78.41 39.2767C78.41 38.8766 78.3565 38.5429 78.2467 38.2814C78.1398 38.0156 77.9881 37.8104 77.7902 37.6617C77.5952 37.5129 77.354 37.4103 77.0708 37.3496C76.7877 37.2933 76.4713 37.2644 76.1246 37.2644H72.6705V41.6546C72.8092 41.6691 72.9608 41.6792 73.127 41.6864C73.2902 41.6936 73.4607 41.6965 73.6297 41.7008C73.7958 41.7037 73.9634 41.7081 74.1252 41.7109C74.2885 41.7138 74.4373 41.7138 74.5687 41.7138C75.2737 41.7138 75.8689 41.6965 76.3572 41.6532C76.8454 41.6113 77.2427 41.5188 77.5475 41.3729C77.8524 41.227 78.0719 41.0146 78.2063 40.7387C78.3406 40.4628 78.4085 40.0828 78.4085 39.609V39.2753L78.41 39.2767ZM74.6294 30.973C74.2639 30.973 73.9273 30.9759 73.6196 30.9831C73.3119 30.9904 72.9926 31.0077 72.6705 31.0366V34.8446H75.6392C76.2734 34.8446 76.7689 34.6987 77.1272 34.4083C77.4854 34.118 77.6617 33.6355 77.6617 32.9666V32.8207C77.6617 32.4032 77.5938 32.0738 77.4637 31.8282C77.3323 31.5841 77.1373 31.3963 76.883 31.2721C76.6273 31.1478 76.3095 31.0669 75.9339 31.0279C75.5583 30.9889 75.122 30.9716 74.6308 30.9716L74.6294 30.973ZM82.3957 43.9891C82.2715 43.9891 82.2296 43.9284 82.2715 43.8114L87.1182 28.8538C87.1471 28.7859 87.1745 28.7411 87.2063 28.7151C87.2381 28.6905 87.2916 28.679 87.3652 28.679H90.7904C90.8685 28.679 90.9219 28.6891 90.9537 28.7151C90.9826 28.7396 91.0144 28.7859 91.0418 28.8538L95.9102 43.8114C95.9492 43.9284 95.9102 43.9891 95.7831 43.9891H93.1264C93.0513 43.9891 92.9993 43.979 92.9675 43.953C92.9357 43.9285 92.9112 43.8822 92.8895 43.8114L91.9866 40.8745H86.1546L85.2619 43.8114C85.2402 43.8822 85.2156 43.9285 85.1838 43.953C85.1521 43.9776 85.0986 43.9891 85.0206 43.9891H82.3957V43.9891ZM89.0699 31.3587L86.9188 38.384H91.2267L89.0699 31.3587V31.3587ZM97.9876 43.9891C97.8633 43.9891 97.7998 43.9256 97.7998 43.8013V28.8653C97.7998 28.7411 97.8633 28.6804 97.9876 28.6804H100.376C100.5 28.6804 100.563 28.7411 100.563 28.8653V34.8779L105.586 28.8263C105.633 28.77 105.679 28.731 105.721 28.7093C105.76 28.692 105.82 28.6804 105.894 28.6804H108.938C109.062 28.6804 109.084 28.7266 108.999 28.8263L102.876 35.9541L108.999 43.8432C109.077 43.9386 109.052 43.9891 108.928 43.9891H105.771C105.696 43.9891 105.637 43.979 105.594 43.9573C105.555 43.9357 105.513 43.901 105.469 43.8447L100.562 37.4002V43.8013C100.562 43.9256 100.498 43.9891 100.374 43.9891H97.9861H97.9876ZM111.823 44.2795C111.256 44.2795 110.752 44.2044 110.31 44.0527C110.239 44.031 110.193 44.0036 110.176 43.9675C110.154 43.9313 110.147 43.8822 110.154 43.8114L110.403 42.0577C110.424 41.9334 110.495 41.88 110.622 41.9016C110.781 41.9305 110.952 41.9508 111.139 41.9652C111.327 41.9796 111.493 41.9869 111.639 41.9869C112.018 41.9869 112.352 41.9695 112.639 41.9334C112.926 41.8973 113.178 41.8265 113.393 41.7138C113.605 41.604 113.79 41.4524 113.942 41.253C114.094 41.0551 114.232 40.7922 114.357 40.4599L109.417 28.8538C109.368 28.7367 109.407 28.6804 109.53 28.6804H112.113C112.248 28.6804 112.33 28.7367 112.365 28.8538L114.887 35.5814C115.018 35.9541 115.109 36.2719 115.16 36.5348C115.213 36.8007 115.245 36.9668 115.26 37.0347L117.314 28.8538C117.328 28.7859 117.353 28.7411 117.382 28.7151C117.413 28.6905 117.467 28.679 117.545 28.679H120.138C120.255 28.679 120.301 28.7353 120.272 28.8523L116.733 40.158C116.477 40.9727 116.219 41.6459 115.953 42.1776C115.692 42.7048 115.379 43.1267 115.014 43.4387C114.653 43.7508 114.217 43.966 113.707 44.0903C113.2 44.2145 112.57 44.2781 111.821 44.2781L111.823 44.2795ZM119.939 43.9891C119.814 43.9891 119.773 43.9284 119.814 43.8114L124.661 28.8538C124.69 28.7859 124.718 28.7411 124.749 28.7151C124.781 28.6905 124.835 28.679 124.908 28.679H128.333C128.411 28.679 128.465 28.6891 128.497 28.7151C128.526 28.7396 128.557 28.7859 128.585 28.8538L133.453 43.8114C133.492 43.9284 133.453 43.9891 133.326 43.9891H130.669C130.594 43.9891 130.542 43.979 130.51 43.953C130.479 43.9285 130.454 43.8822 130.432 43.8114L129.53 40.8745H123.698L122.805 43.8114C122.783 43.8822 122.759 43.9285 122.727 43.953C122.695 43.9776 122.642 43.9891 122.564 43.9891H119.939V43.9891ZM126.613 31.3587L124.462 38.384H128.77L126.613 31.3587V31.3587ZM135.531 43.9891C135.406 43.9891 135.343 43.9256 135.343 43.8013V28.8653C135.343 28.7411 135.406 28.6804 135.531 28.6804H137.919C138.043 28.6804 138.106 28.7411 138.106 28.8653V41.3743H144.051V28.8653C144.051 28.7411 144.115 28.6804 144.239 28.6804H146.605C146.729 28.6804 146.793 28.7411 146.793 28.8653V41.3743H148.193C148.317 41.3743 148.381 41.435 148.381 41.5593V46.5649C148.381 46.6891 148.317 46.7498 148.193 46.7498H145.815C145.691 46.7498 145.63 46.6891 145.63 46.5649V43.9891H135.529H135.531ZM153.567 28.6804C153.694 28.6804 153.755 28.7411 153.755 28.8653V39.2132C153.762 39.2132 153.815 39.1106 153.918 38.8983C154.017 38.6859 154.166 38.4157 154.367 38.0835L159.745 28.848C159.777 28.7844 159.816 28.7411 159.852 28.7165C159.891 28.692 159.948 28.6804 160.026 28.6804H162.64C162.765 28.6804 162.828 28.7411 162.828 28.8653V43.8013C162.828 43.9256 162.765 43.9891 162.64 43.9891H160.263C160.138 43.9891 160.075 43.9256 160.075 43.8013V33.4636C160.036 33.5632 159.972 33.6904 159.884 33.8493C159.799 34.0082 159.667 34.235 159.494 34.5326L154.088 43.8215C154.025 43.9313 153.932 43.9877 153.808 43.9877H151.193C151.066 43.9877 151.005 43.9241 151.005 43.7999V28.8639C151.005 28.7396 151.066 28.679 151.193 28.679H153.567V28.6804ZM168.971 28.6804C169.098 28.6804 169.159 28.7411 169.159 28.8653V39.2132C169.166 39.2132 169.219 39.1106 169.322 38.8983C169.422 38.6859 169.57 38.4157 169.771 38.0835L175.15 28.848C175.181 28.7844 175.22 28.7411 175.256 28.7165C175.295 28.692 175.352 28.6804 175.43 28.6804H178.045C178.169 28.6804 178.232 28.7411 178.232 28.8653V43.8013C178.232 43.9256 178.169 43.9891 178.045 43.9891H175.667C175.542 43.9891 175.479 43.9256 175.479 43.8013V33.4636C175.44 33.5632 175.376 33.6904 175.288 33.8493C175.203 34.0082 175.072 34.235 174.898 34.5326L169.492 43.8215C169.429 43.9313 169.336 43.9877 169.212 43.9877H166.597C166.47 43.9877 166.41 43.9241 166.41 43.7999V28.8639C166.41 28.7396 166.47 28.679 166.597 28.679H168.971V28.6804Z" fill="#FBFBFB"/>
</svg>
